<?xml version="1.0" encoding="UTF-8"?>
<svg version="1.1" xmlns="http://www.w3.org/2000/svg" width="500" height="500">
<path d="M0 0 C2.96895892 0.4025707 5.41625727 0.47898137 8.375 0.375 C14.73438966 0.31647801 20.59144939 1.79929023 26.6875 3.5 C27.65171875 3.76683594 28.6159375 4.03367187 29.609375 4.30859375 C40.93347687 7.90735494 48.85838793 15.25630705 54.6875 25.5 C58.98896947 34.27823392 60.95492747 43.46451981 61.4375 53.1875 C61.48060303 54.03530029 61.52370605 54.88310059 61.56811523 55.7565918 C62.12291583 71.65047576 60.68996173 87.64343577 59.6875 103.5 C60.53046631 103.46447021 61.37343262 103.42894043 62.24194336 103.39233398 C65.35963187 103.26337221 68.47745963 103.13901659 71.59545898 103.01782227 C72.94677079 102.96434198 74.29801052 102.90900806 75.64916992 102.85180664 C77.58752989 102.77006429 79.52618704 102.69546677 81.46484375 102.62109375 C83.21655884 102.55039673 83.21655884 102.55039673 85.00366211 102.47827148 C87.6875 102.5 87.6875 102.5 88.6875 103.5 C88.72842937 105.83297433 88.72991723 108.16705225 88.6875 110.5 C89.64640137 110.43417725 90.60530273 110.36835449 91.59326172 110.30053711 C95.14497913 110.05821946 98.69715222 109.82327508 102.24951172 109.59057617 C103.78805809 109.48875344 105.32647282 109.38492117 106.86474609 109.27905273 C109.07357918 109.12738238 111.2827821 108.98290296 113.4921875 108.83984375 C114.18182587 108.79093491 114.87146423 108.74202606 115.58200073 108.69163513 C120.45975659 108.38612829 120.45975659 108.38612829 122.6875 109.5 C125.79179108 175.09362634 128.72885713 240.69424624 131.54989624 306.30065918 C131.68325459 309.40129255 131.81683094 312.50191646 131.95043945 315.60253906 C132.40928585 326.2604839 132.86234953 336.91864627 133.30514526 347.57727051 C133.43209848 350.63163449 133.56095132 353.68590768 133.69168091 356.7401123 C134.38609126 373.00144147 134.87048099 389.22218256 134.6875 405.5 C129.75625319 407.36678002 125.09627615 408.08958206 119.8984375 408.65625 C118.55877426 408.81062027 118.55877426 408.81062027 117.19204712 408.96810913 C115.2111941 409.19569365 113.23000318 409.42035081 111.24853516 409.64251709 C106.78008384 410.14389102 102.31338226 410.66015402 97.84649658 411.17526245 C95.33058584 411.46528834 92.81459128 411.75458782 90.29852295 412.04324341 C74.22333986 413.88871309 58.15749921 415.81295798 42.09078979 417.73052979 C36.67797591 418.37639807 31.26490658 419.02010859 25.85180664 419.66357422 C9.27093557 421.63530458 -7.30874011 423.61591855 -23.8845787 425.62955856 C-28.55277669 426.1961574 -33.22128945 426.76015822 -37.88979912 427.32418251 C-42.22847734 427.8487532 -46.566545 428.37804576 -50.90420055 428.91100311 C-52.92135661 429.15800992 -54.93879049 429.40257771 -56.95637512 429.64605713 C-59.37882422 429.93842894 -61.80081879 430.23460612 -64.22221375 430.5355835 C-80.96694945 432.53769965 -80.96694945 432.53769965 -85.3515625 429.15625 C-86.23966876 428.12612637 -87.10117241 427.07258734 -87.9375 426 C-88.402771 425.44900635 -88.86804199 424.8980127 -89.34741211 424.33032227 C-90.27242014 423.23190534 -91.18711225 422.12470287 -92.09033203 421.00830078 C-93.63323269 419.10417768 -95.24862108 417.27052471 -96.875 415.4375 C-97.41253906 414.81746094 -97.95007813 414.19742187 -98.50390625 413.55859375 C-101.51606354 410.13006915 -104.60558764 406.77202271 -107.6875 403.40625 C-108.55375 402.4471875 -109.42 401.488125 -110.3125 400.5 C-111.18485291 399.79093758 -111.18485291 399.79093758 -112.0748291 399.06755066 C-116.04755128 395.47291092 -117.70589934 392.40826505 -118.06732368 387.00016594 C-118.16957397 383.12788149 -118.11050563 379.26671843 -118.03125 375.39453125 C-118.02105635 373.61880962 -118.0140026 371.84306769 -118.00979614 370.06732178 C-117.98930048 365.17981466 -117.92501259 360.29371718 -117.85346222 355.40672684 C-117.78410709 350.16774049 -117.75425421 344.92852274 -117.72021484 339.68920898 C-117.65516763 330.41818656 -117.56513159 321.14764446 -117.46386719 311.87695312 C-117.30999281 297.53912309 -117.23071981 283.20143987 -117.16408563 268.86300641 C-117.10929656 257.10240926 -117.04205025 245.34187564 -116.9744637 233.58134609 C-116.95384712 229.98510333 -116.93377579 226.38885928 -116.91500854 222.79260635 C-116.72603959 186.6587942 -116.10904031 150.59480255 -114.3125 114.5 C-105.68310717 110.88460535 -96.00735067 111.5464247 -86.76171875 111.25390625 C-86.0923378 111.23267197 -85.42295685 111.21143768 -84.73329163 111.18955994 C-81.31723825 111.08228094 -77.90118609 110.98182152 -74.48461914 110.89233398 C-73.21610107 110.85567627 -71.94758301 110.81901855 -70.640625 110.78125 C-69.4949707 110.75095703 -68.34931641 110.72066406 -67.16894531 110.68945312 C-64.2392451 110.61599905 -64.2392451 110.61599905 -61.3125 109.5 C-61.71082031 107.83324219 -61.71082031 107.83324219 -62.1171875 106.1328125 C-65.75614128 90.844045 -68.74500247 76.31454666 -68.3125 60.5 C-68.29461426 59.78183105 -68.27672852 59.06366211 -68.25830078 58.32373047 C-67.773755 41.01094522 -65.31022133 26.86303145 -52.25 14.1875 C-37.54875334 1.57772904 -19.05859274 -2.72265611 0 0 Z M-50.37890625 22.12109375 C-59.93705458 33.88051261 -61.84534549 45.54312655 -61.6875 60.4375 C-61.68351196 61.1160907 -61.67952393 61.7946814 -61.67541504 62.49383545 C-62.19205951 87.87890434 -62.19205951 87.87890434 -53.3125 110.5 C-51.60246969 110.51670061 -49.89164122 110.46290858 -48.18359375 110.37890625 C-47.14912109 110.33056641 -46.11464844 110.28222656 -45.04882812 110.23242188 C-43.96021484 110.17634766 -42.87160156 110.12027344 -41.75 110.0625 C-40.65751953 110.01029297 -39.56503906 109.95808594 -38.43945312 109.90429688 C-35.73020924 109.77415852 -33.02129206 109.63917946 -30.3125 109.5 C-31.28554974 104.06572021 -32.27758409 98.63957466 -33.3828125 93.23046875 C-35.63540894 81.69397182 -36.68604995 70.43653653 -36.6875 58.6875 C-36.6889502 57.44315186 -36.69040039 56.19880371 -36.69189453 54.91674805 C-36.50475018 39.31122239 -33.62175652 25.01080762 -22.3125 13.5 C-20.01849116 11.74465005 -17.70193025 10.18449229 -15.23046875 8.69140625 C-13.17815853 7.51735119 -13.17815853 7.51735119 -11.3125 5.5 C-26.0099628 4.49790026 -40.53338132 11.44457039 -50.37890625 22.12109375 Z M-20.06640625 19.16015625 C-32.06525093 32.36189263 -32.18590688 50.86881958 -31.48535156 67.78222656 C-31.01878357 75.11815156 -29.7576892 82.30176196 -28.3125 89.5 C-28.13605957 90.38042969 -27.95961914 91.26085937 -27.77783203 92.16796875 C-26.67182453 97.62310511 -25.5115731 103.06460775 -24.3125 108.5 C-14.79994733 108.5573155 -5.31931356 108.40717344 4.1875 108.0625 C5.40953125 108.02318359 6.6315625 107.98386719 7.890625 107.94335938 C9.07140625 107.90146484 10.2521875 107.85957031 11.46875 107.81640625 C12.52126953 107.77974854 13.57378906 107.74309082 14.65820312 107.70532227 C17.72115794 107.4977187 20.66978978 107.05495849 23.6875 106.5 C24.51168252 102.58570064 25.31961552 98.6682066 26.125 94.75 C26.35509766 93.65816406 26.58519531 92.56632812 26.82226562 91.44140625 C32.11528188 65.51329762 31.67593276 39.23416681 17.1171875 16.453125 C13.56170394 11.59590702 9.17714786 9.53320291 3.6875 7.5 C-4.91789784 7.5 -13.98095262 13.39998299 -20.06640625 19.16015625 Z M18.6875 8.5 C19.2753125 9.35464844 19.863125 10.20929687 20.46875 11.08984375 C38.52796605 38.23430802 36.03064021 67.88873082 31.0546875 98.65112305 C30.71232983 101.30735421 30.61870713 103.82598446 30.6875 106.5 C33.39610124 106.35823579 36.10430752 106.21171784 38.8125 106.0625 C39.57304687 106.02318359 40.33359375 105.98386719 41.1171875 105.94335938 C41.86484375 105.90146484 42.6125 105.85957031 43.3828125 105.81640625 C44.06359863 105.77974854 44.74438477 105.74309082 45.44580078 105.70532227 C48.22217813 105.45102763 50.94260225 104.98267601 53.6875 104.5 C54.07044254 93.83464298 54.40776401 83.16857384 54.6875 72.5 C54.71908203 71.29698242 54.75066406 70.09396484 54.78320312 68.85449219 C55.20079506 50.59287544 55.09041943 33.51550286 42.0625 19.1875 C35.69880899 13.25131222 27.46340113 8.8989046 18.6875 8.5 Z " fill="#AD8E71" transform="translate(243.3125,48.5)"/>
<path d="M0 0 C1.65 0 3.3 0 5 0 C3.58332235 3.49695693 2.10879673 4.8114472 -1.125 6.6875 C-11.17754849 13.13599975 -17.85768553 22.8483572 -20.60742188 34.47631836 C-21.49574266 40.18687304 -21.34321408 45.98420726 -21.3125 51.75 C-21.31100952 52.43608337 -21.30951904 53.12216675 -21.3079834 53.82904053 C-21.24393626 70.24470461 -19.36956298 85.44678308 -14 101 C-6.41 101 1.18 101 9 101 C9.33 98.69 9.66 96.38 10 94 C10.66 94.33 11.32 94.66 12 95 C13.14242743 99.68395246 13.08252495 104.21355271 13 109 C4.07521124 110.22638552 -4.88248005 110.3451376 -13.875 110.5625 C-15.53995867 110.60534903 -17.20491635 110.64823651 -18.86987305 110.69116211 C-29.91421909 110.96717415 -40.9520987 111.13602067 -52 111 C-52 111.66 -52 112.32 -52 113 C-51.34 113 -50.68 113 -50 113 C-50 113.66 -50 114.32 -50 115 C-50.66 115.495 -51.32 115.99 -52 116.5 C-54.73437791 119.91797239 -54.27931937 122.41223297 -54.04296875 126.66015625 C-54 129 -54 129 -55 132 C-55.0972886 134.12318064 -55.12977619 136.24959691 -55.125 138.375 C-55.12757813 139.49648437 -55.13015625 140.61796875 -55.1328125 141.7734375 C-55.06888689 145.08322691 -54.82629319 148.36121225 -54.5546875 151.66015625 C-53.79305121 161.11476434 -53.42164014 170.5879497 -53 180.0625 C-52.87545415 182.82367177 -52.75031715 185.58481594 -52.62487793 188.34594727 C-52.54147185 190.18381619 -52.45854718 192.02170702 -52.37609863 193.85961914 C-52.17648826 198.27774048 -51.96721896 202.69492705 -51.73242188 207.11132812 C-51.06229776 219.73330653 -50.70086581 232.34672766 -50.44775391 244.98339844 C-50.39592728 247.51767269 -50.33886505 250.05178921 -50.28125 252.5859375 C-50.26767456 253.34530609 -50.25409912 254.10467468 -50.2401123 254.88705444 C-50.14358996 259.01989713 -49.73077214 262.93563024 -49 267 C-48.95732534 269.52047209 -48.95930567 272.04199516 -49 274.5625 C-49.07014366 278.9157907 -48.90483696 282.75367854 -48 287 C-47.97311851 289.34637048 -48.06166793 291.66769662 -48.16015625 294.01171875 C-48.19723105 296.23480247 -48.19723105 296.23480247 -46 298 C-45.8046875 301.2578125 -45.8046875 301.2578125 -45.875 305.125 C-45.89304688 306.40632813 -45.91109375 307.68765625 -45.9296875 309.0078125 C-45.95289063 309.99523437 -45.97609375 310.98265625 -46 312 C-46.66 312 -47.32 312 -48 312 C-47.85957505 315.50023856 -47.71166774 319.00012399 -47.5625 322.5 C-47.52318359 323.48226563 -47.48386719 324.46453125 -47.44335938 325.4765625 C-47.25691623 329.77909658 -47.04574089 334.03263633 -46.45703125 338.30078125 C-46.01776783 341.85618685 -45.92675428 345.11476729 -46.125 348.6875 C-46.16882813 349.76386719 -46.21265625 350.84023438 -46.2578125 351.94921875 C-47.23729938 355.97542534 -48.89971738 357.27008671 -52 360 C-53.19294611 361.155836 -54.37866681 362.31915778 -55.55859375 363.48828125 C-56.19216797 364.11283203 -56.82574219 364.73738281 -57.47851562 365.38085938 C-58.44821289 366.33702148 -58.44821289 366.33702148 -59.4375 367.3125 C-60.40139648 368.25125977 -60.40139648 368.25125977 -61.38476562 369.20898438 C-65.28160059 373.06625756 -68.63740679 377.00701639 -71.75805664 381.52026367 C-72.16789795 382.00857666 -72.57773926 382.49688965 -73 383 C-73.66 383 -74.32 383 -75 383 C-75 383.66 -75 384.32 -75 385 C-75.99 384.67 -76.98 384.34 -78 384 C-78.12965021 331.0242177 -78.02083531 278.05026992 -77.66698426 225.07560831 C-77.63393864 220.07456138 -77.60520571 215.07350211 -77.57839966 210.07241821 C-77.38975178 175.34509811 -76.72655638 140.68873534 -75 106 C-70.96934587 104.29392984 -67.72114906 103.65425545 -63.33203125 103.4140625 C-62.68514847 103.37745514 -62.03826569 103.34084778 -61.3717804 103.3031311 C-53.92774309 102.90231489 -46.47617819 102.65314876 -39.0246582 102.44238281 C-36.64447594 102.37375957 -34.26467004 102.29635822 -31.88476562 102.21875 C-30.36459878 102.17395198 -28.84441688 102.12966109 -27.32421875 102.0859375 C-26.61601486 102.06203949 -25.90781097 102.03814148 -25.17814636 102.01351929 C-20.22898858 101.88550571 -20.22898858 101.88550571 -18 103 C-18.27714844 102.16597656 -18.55429688 101.33195312 -18.83984375 100.47265625 C-20.73552159 94.5832372 -22.32103573 89.07193344 -22.7890625 82.8984375 C-22.94828801 80.80550198 -22.94828801 80.80550198 -24 78.1875 C-27.72011117 66.32964565 -27 51.41279204 -27 39 C-26.34 39 -25.68 39 -25 39 C-25.04125 37.80375 -25.0825 36.6075 -25.125 35.375 C-25.13851708 31.57670047 -24.42009753 28.55024382 -23 25 C-22.34 25 -21.68 25 -21 25 C-20.67 23.02 -20.34 21.04 -20 19 C-19.01 18.67 -18.02 18.34 -17 18 C-16.505 16.515 -16.505 16.515 -16 15 C-15.67 14.01 -15.34 13.02 -15 12 C-13.515 11.505 -13.515 11.505 -12 11 C-10.76752525 9.50805688 -9.53692371 8.01430593 -8.33203125 6.5 C-6.49056099 4.42632088 -4.47921167 3.20610297 -2 2 C-1.34 2 -0.68 2 0 2 C0 1.34 0 0.68 0 0 Z " fill="#9B7957" transform="translate(204,57)"/>
<path d="M0 0 C-2.66825113 3.18654451 -5.90208417 4.51426147 -9.625 6.25 C-15.72319318 9.19533255 -20.85982865 12.55811608 -26 17 C-26.72445312 17.56976563 -27.44890625 18.13953125 -28.1953125 18.7265625 C-42.50744807 30.44555852 -52.07622075 48.8168776 -55 67 C-55.03906972 68.66620867 -55.05102712 70.33411465 -55 72 C-54.84144531 71.06800781 -54.68289062 70.13601563 -54.51953125 69.17578125 C-51.1538049 50.78515494 -44.20301376 36.42717359 -31 23 C-30.31292969 22.30003906 -29.62585938 21.60007813 -28.91796875 20.87890625 C-24.56960004 16.74029188 -19.92308457 13.55648588 -14.75 10.5625 C-14.15936768 10.22009277 -13.56873535 9.87768555 -12.96020508 9.52490234 C-9.66910443 7.69708212 -6.73776082 6.4988365 -3 6 C-4.4347284 8.8694568 -6.34192648 9.19060564 -9.25 10.5 C-19.26195834 15.38650473 -28.223629 22.0939124 -35 31 C-34.50113281 30.45472656 -34.00226563 29.90945313 -33.48828125 29.34765625 C-18.04629111 13.12940808 1.472927 3.31237024 23.95800781 2.59912109 C46.48133028 2.31016297 65.01351019 8.99577561 82 24 C82.97582031 24.76828125 83.95164062 25.5365625 84.95703125 26.328125 C88.19210273 29.02325166 90.5927747 32.06275772 93 35.5 C93.42788818 36.10730957 93.85577637 36.71461914 94.29663086 37.34033203 C99.84909677 45.43894476 104.60790482 54.00157291 105 64 C102.00547472 62.50273736 101.943969 60.3746786 100.875 57.25 C93.19598351 36.75016943 78.52249599 21.84569713 58.8125 12.57421875 C40.29492112 4.68584637 20.08632742 2.78919208 1 10 C-6.98757198 13.30663448 -14.03558564 16.62250965 -20 23 C-21.43014211 24.21703296 -22.86748491 25.42566389 -24.3125 26.625 C-34.01881233 35.2706888 -39.73994183 46.31975536 -45 58 C-45.45890625 58.99773437 -45.9178125 59.99546875 -46.390625 61.0234375 C-52.58263513 76.59067423 -49.30456965 95.210708 -43.25 110.25 C-40.090084 117.24583393 -36.32627636 123.76775265 -30.7890625 129.1484375 C-29 131 -29 131 -29 133 C-28.12988281 133.39638672 -28.12988281 133.39638672 -27.2421875 133.80078125 C-24.90821232 135.04909202 -23.13892396 136.47527282 -21.125 138.1875 C-10.48798354 146.51664829 1.01396815 150.2847388 14 153 C14 153.33 14 153.66 14 154 C-2.26957949 155.25150611 -17.12367478 145.06097532 -29 135 C-30.32592834 133.99020209 -31.65686365 132.98679406 -33 132 C-20.26944683 146.0505414 -3.61486608 156.65075803 15.72680664 158.22143555 C28.39822338 158.72613996 39.99822261 158.39583172 52 154 C53.02867187 153.649375 54.05734375 153.29875 55.1171875 152.9375 C74.5902188 145.6540805 87.40682419 130.93506782 97 113 C97.33 113.66 97.66 114.32 98 115 C94.94638917 122.89259896 90.44639412 129.59727972 85 136 C84.42894531 136.73863281 83.85789062 137.47726562 83.26953125 138.23828125 C73.83096695 149.89058131 60.87130942 155.40625467 47 160 C60.32674734 157.30629575 70.87320787 152.07022473 81 143 C81.83402344 142.26007813 82.66804687 141.52015625 83.52734375 140.7578125 C90.77941407 133.94153685 96.54515095 125.9096981 101 117 C101.66 117.33 102.32 117.66 103 118 C99.28627132 125.27781994 95.23687503 131.73197037 90 138 C89.47921875 138.66644531 88.9584375 139.33289063 88.421875 140.01953125 C77.67409744 153.24555849 62.20852188 160.76084812 46 165 C50.62 164.34 55.24 163.68 60 163 C53.23718321 169.76281679 37.28053068 170.27696103 28.21459961 170.44946289 C20.03860206 170.4150184 11.91923061 170.21904886 4 168 C3.25363281 167.79375 2.50726563 167.5875 1.73828125 167.375 C-0.55216958 166.67147584 -2.76740364 165.86969605 -5 165 C-6.34771484 164.47599609 -6.34771484 164.47599609 -7.72265625 163.94140625 C-13.3639644 161.57469513 -17.67948514 158.93371405 -22.12109375 154.734375 C-23.91712474 153.07650024 -25.74841932 151.70990745 -27.75 150.3125 C-40.04745572 141.1558483 -52.24072974 128.23857007 -55.38891602 112.79077148 C-55.96504535 110.15963509 -56.72667239 107.67134696 -57.5390625 105.10546875 C-59.46093503 98.09292896 -59.5351123 91.2353557 -59.5 84 C-59.49823761 83.31946564 -59.49647522 82.63893127 -59.49465942 81.93777466 C-59.37354236 60.91179009 -53.97859934 42.13616576 -40 26 C-39.40703125 25.26394531 -38.8140625 24.52789062 -38.203125 23.76953125 C-30.92748362 15.03575513 -21.95465408 8.84524325 -12.0625 3.4375 C-11.12265259 2.91724243 -11.12265259 2.91724243 -10.16381836 2.38647461 C-6.63690671 0.53601942 -3.99271638 -0.41669716 0 0 Z " fill="#2D231A" transform="translate(238,227)"/>
<path d="M0 0 C1.94723518 1.56178332 1.94723518 1.56178332 4.890625 2.375 C5.59000032 3.69147119 6.25791633 5.02522151 6.890625 6.375 C7.550625 6.705 8.210625 7.035 8.890625 7.375 C9.29791728 9.69656597 9.63501177 12.0318787 9.890625 14.375 C10.550625 14.375 11.210625 14.375 11.890625 14.375 C14.57282322 19.73939644 15.2058845 23.38506953 14.890625 29.375 C15.550625 29.375 16.210625 29.375 16.890625 29.375 C17.385625 33.83 17.385625 33.83 17.890625 38.375 C18.550625 38.375 19.210625 38.375 19.890625 38.375 C19.890625 41.015 19.890625 43.655 19.890625 46.375 C19.230625 46.375 18.570625 46.375 17.890625 46.375 C17.26371106 58.579814 16.72699374 70.78778997 16.265625 83 C16.1874353 84.91171997 16.1874353 84.91171997 16.10766602 86.86206055 C16.06440186 88.05484619 16.0211377 89.24763184 15.9765625 90.4765625 C15.9357959 91.54213379 15.8950293 92.60770508 15.85302734 93.70556641 C15.75734199 96.47987764 15.75734199 96.47987764 16.890625 99.375 C15.32084093 100.94478407 13.71581342 100.57560957 11.53295898 100.65625 C10.60366074 100.69298828 9.67436249 100.72972656 8.71690369 100.76757812 C7.70044266 100.80302734 6.68398163 100.83847656 5.63671875 100.875 C4.58847427 100.91560547 3.5402298 100.95621094 2.46022034 100.99804688 C-0.9169911 101.12819894 -4.29439805 101.25194669 -7.671875 101.375 C-12.06911207 101.53905927 -16.46622982 101.70604158 -20.86328125 101.875 C-21.92990997 101.91557022 -22.9965387 101.95614044 -24.0954895 101.99794006 C-30.1258709 102.23423826 -36.14645571 102.53068592 -42.16796875 102.93359375 C-47.33309971 103.27872378 -52.43358159 103.48726724 -57.609375 103.4375 C-58.8571875 103.42847656 -60.105 103.41945313 -61.390625 103.41015625 C-62.2878125 103.39855469 -63.185 103.38695312 -64.109375 103.375 C-64.234375 100 -64.234375 100 -64.109375 96.375 C-58.33327028 90.59889528 -41.49589528 93.01965624 -33.421875 92.8125 C-31.83397567 92.76919808 -30.24608492 92.72558057 -28.65820312 92.68164062 C-24.80868279 92.57579311 -20.95907211 92.47420091 -17.109375 92.375 C-17.05458984 91.81594971 -16.99980469 91.25689941 -16.94335938 90.6809082 C-16.41302655 85.56459775 -15.6307618 80.60304387 -14.609375 75.5625 C-9.71697505 50.33173663 -10.42551196 24.57459271 -24.4765625 2.39453125 C-27.15833179 -0.92239392 -30.31777794 -2.77433953 -34.109375 -4.625 C-35.264375 -5.223125 -36.419375 -5.82125 -37.609375 -6.4375 C-38.846875 -7.0253125 -38.846875 -7.0253125 -40.109375 -7.625 C-28.38645732 -15.44027845 -9.94683634 -7.662748 0 0 Z M-22.109375 -5.625 C-21.5215625 -4.77035156 -20.93375 -3.91570313 -20.328125 -3.03515625 C-2.26890895 24.10930802 -4.76623479 53.76373082 -9.7421875 84.52612305 C-10.08454517 87.18235421 -10.17816787 89.70098446 -10.109375 92.375 C-7.40077376 92.23323579 -4.69256748 92.08671784 -1.984375 91.9375 C-1.22382813 91.89818359 -0.46328125 91.85886719 0.3203125 91.81835938 C1.06796875 91.77646484 1.815625 91.73457031 2.5859375 91.69140625 C3.26672363 91.65474854 3.94750977 91.61809082 4.64892578 91.58032227 C7.42530313 91.32602763 10.14572725 90.85767601 12.890625 90.375 C13.27356754 79.70964298 13.61088901 69.04357384 13.890625 58.375 C13.92220703 57.17198242 13.95378906 55.96896484 13.98632812 54.72949219 C14.40392006 36.46787544 14.29354443 19.39050286 1.265625 5.0625 C-5.09806601 -0.87368778 -13.33347387 -5.2260954 -22.109375 -5.625 Z " fill="#9D8368" transform="translate(284.109375,62.625)"/>
<path d="M0 0 C1.65 0 3.3 0 5 0 C3.58332235 3.49695693 2.10879673 4.8114472 -1.125 6.6875 C-11.17754849 13.13599975 -17.85768553 22.8483572 -20.60742188 34.47631836 C-21.49574266 40.18687304 -21.34321408 45.98420726 -21.3125 51.75 C-21.31100952 52.43608337 -21.30951904 53.12216675 -21.3079834 53.82904053 C-21.24393626 70.24470461 -19.36956298 85.44678308 -14 101 C-6.41 101 1.18 101 9 101 C9.33 98.69 9.66 96.38 10 94 C10.66 94.33 11.32 94.66 12 95 C13.14242743 99.68395246 13.08252495 104.21355271 13 109 C6.57399639 109.78856645 0.22365711 110.23301815 -6.24609375 110.421875 C-7.68837341 110.46541862 -7.68837341 110.46541862 -9.15979004 110.50984192 C-12.25221191 110.597738 -15.344722 110.67573115 -18.4375 110.75 C-20.01013107 110.78901932 -20.01013107 110.78901932 -21.61453247 110.8288269 C-37.66366278 111.19787313 -53.15130777 110.81319593 -69 108 C-71.43691731 112.79287186 -71.4216643 117.44686639 -71.59765625 122.70703125 C-71.65603416 124.13264122 -71.65603416 124.13264122 -71.71559143 125.58705139 C-71.83958895 128.66193622 -71.95114775 131.73713369 -72.0625 134.8125 C-72.14482857 136.90970119 -72.22799941 139.00686949 -72.31201172 141.10400391 C-72.47540892 145.21224199 -72.63426101 149.32061002 -72.78857422 153.42919922 C-73.04520582 160.24544408 -73.33374861 167.06015147 -73.625 173.875 C-73.75117354 176.91662002 -73.87571557 179.9583021 -74 183 C-74.99 183 -75.98 183 -77 183 C-77.45495706 157.30192557 -76.16558989 131.66452789 -75 106 C-71.04183755 104.1695876 -67.67403529 103.65167717 -63.33203125 103.4140625 C-62.68514847 103.37745514 -62.03826569 103.34084778 -61.3717804 103.3031311 C-53.92774309 102.90231489 -46.47617819 102.65314876 -39.0246582 102.44238281 C-36.64447594 102.37375957 -34.26467004 102.29635822 -31.88476562 102.21875 C-30.36459878 102.17395198 -28.84441688 102.12966109 -27.32421875 102.0859375 C-26.61601486 102.06203949 -25.90781097 102.03814148 -25.17814636 102.01351929 C-20.22898858 101.88550571 -20.22898858 101.88550571 -18 103 C-18.27714844 102.16597656 -18.55429688 101.33195312 -18.83984375 100.47265625 C-20.73552159 94.5832372 -22.32103573 89.07193344 -22.7890625 82.8984375 C-22.94828801 80.80550198 -22.94828801 80.80550198 -24 78.1875 C-27.72011117 66.32964565 -27 51.41279204 -27 39 C-26.34 39 -25.68 39 -25 39 C-25.04125 37.80375 -25.0825 36.6075 -25.125 35.375 C-25.13851708 31.57670047 -24.42009753 28.55024382 -23 25 C-22.34 25 -21.68 25 -21 25 C-20.67 23.02 -20.34 21.04 -20 19 C-19.01 18.67 -18.02 18.34 -17 18 C-16.505 16.515 -16.505 16.515 -16 15 C-15.67 14.01 -15.34 13.02 -15 12 C-14.01 11.67 -13.02 11.34 -12 11 C-10.76752525 9.50805688 -9.53692371 8.01430593 -8.33203125 6.5 C-6.49056099 4.42632088 -4.47921167 3.20610297 -2 2 C-1.34 2 -0.68 2 0 2 C0 1.34 0 0.68 0 0 Z " fill="#9D8268" transform="translate(204,57)"/>
<path d="M0 0 C2.96895892 0.4025707 5.41625727 0.47898137 8.375 0.375 C14.73438966 0.31647801 20.59144939 1.79929023 26.6875 3.5 C27.65171875 3.76683594 28.6159375 4.03367187 29.609375 4.30859375 C40.93347687 7.90735494 48.85838793 15.25630705 54.6875 25.5 C58.95998595 34.21908576 61.0397702 42.81256946 60.6875 52.5 C59.6975 52.83 58.7075 53.16 57.6875 53.5 C57.6875 50.2 57.6875 46.9 57.6875 43.5 C57.0275 43.5 56.3675 43.5 55.6875 43.5 C55.56375 42.324375 55.44 41.14875 55.3125 39.9375 C54.82314065 35.95879574 53.8819795 32.32233441 52.6875 28.5 C52.0275 28.5 51.3675 28.5 50.6875 28.5 C50.605 27.38625 50.5225 26.2725 50.4375 25.125 C50.10876213 21.44246056 50.10876213 21.44246056 47.625 20.0625 C46.985625 19.876875 46.34625 19.69125 45.6875 19.5 C45.6875 18.51 45.6875 17.52 45.6875 16.5 C45.006875 16.438125 44.32625 16.37625 43.625 16.3125 C40.29243633 15.39072707 38.31590815 13.9623158 35.62890625 11.8515625 C30.68484098 8.40961767 25.68472521 6.81259313 19.8125 5.75 C19.14347656 5.61207031 18.47445312 5.47414063 17.78515625 5.33203125 C12.81292867 4.40273245 8.65684234 4.46603917 3.6875 5.5 C1.97221016 6.86605106 1.97221016 6.86605106 0.6875 8.5 C-1.65234375 9.6328125 -1.65234375 9.6328125 -4.25 10.625 C-5.10464844 10.95757812 -5.95929688 11.29015625 -6.83984375 11.6328125 C-8.98770185 12.38608975 -11.09504968 12.99580016 -13.3125 13.5 C-12.9825 12.84 -12.6525 12.18 -12.3125 11.5 C-14.2925 11.5 -16.2725 11.5 -18.3125 11.5 C-17.3125 8.5 -17.3125 8.5 -15.25 7.3125 C-14.610625 7.044375 -13.97125 6.77625 -13.3125 6.5 C-20.30012193 6.76568905 -25.95186644 7.80466603 -32.31640625 10.7578125 C-32.97511719 11.00273438 -33.63382813 11.24765625 -34.3125 11.5 C-34.9725 11.17 -35.6325 10.84 -36.3125 10.5 C-35.9825 10.17 -35.6525 9.84 -35.3125 9.5 C-36.6325 9.17 -37.9525 8.84 -39.3125 8.5 C-39.3125 9.16 -39.3125 9.82 -39.3125 10.5 C-41.8739657 12.79648649 -42.79217572 13.5 -46.3125 13.5 C-46.6425 14.49 -46.9725 15.48 -47.3125 16.5 C-49.64453016 19.14296752 -50.92923278 20.37224426 -54.3125 21.5 C-55.01461894 23.15204456 -55.68221413 24.81923769 -56.3125 26.5 C-56.9725 26.83 -57.6325 27.16 -58.3125 27.5 C-59.03943904 29.47888961 -59.71066251 31.47954558 -60.3125 33.5 C-60.9725 33.5 -61.6325 33.5 -62.3125 33.5 C-63.12712495 38.15499974 -63.74643721 42.80976546 -64.3125 47.5 C-64.9725 47.5 -65.6325 47.5 -66.3125 47.5 C-65.9825 48.49 -65.6525 49.48 -65.3125 50.5 C-65.17713365 51.97333018 -65.08856984 53.45126256 -65.03125 54.9296875 C-64.97626343 56.23776367 -64.97626343 56.23776367 -64.92016602 57.57226562 C-64.88463623 58.49716797 -64.84910645 59.42207031 -64.8125 60.375 C-64.72905867 62.27869855 -64.64442479 64.1823452 -64.55859375 66.0859375 C-64.51718262 67.01245117 -64.47577148 67.93896484 -64.43310547 68.89355469 C-64.27708741 72.26531337 -64.09567739 75.63176611 -63.875 79 C-63.81441406 79.9590625 -63.75382813 80.918125 -63.69140625 81.90625 C-63.28360669 84.69778514 -62.37204423 86.89344062 -61.3125 89.5 C-60.9306236 91.47037616 -60.59884368 93.45099072 -60.3125 95.4375 C-59.66010553 99.65735315 -58.72498583 103.4643262 -57.3125 107.5 C-57.3125 108.82 -57.3125 110.14 -57.3125 111.5 C-59.1796875 111 -59.1796875 111 -61.3125 109.5 C-62.22679434 106.77504433 -62.88414875 104.29811182 -63.4375 101.5 C-63.60290283 100.72833496 -63.76830566 99.95666992 -63.9387207 99.16162109 C-64.26466397 97.62983245 -64.58329757 96.09646733 -64.89404297 94.56152344 C-65.23467166 92.88342036 -65.60003355 91.21035247 -65.97265625 89.5390625 C-68.06911341 79.94194749 -68.58047823 70.29868209 -68.3125 60.5 C-68.29461426 59.78183105 -68.27672852 59.06366211 -68.25830078 58.32373047 C-67.773755 41.01094522 -65.31022133 26.86303145 -52.25 14.1875 C-37.54875334 1.57772904 -19.05859274 -2.72265611 0 0 Z M-11.3125 7.5 C-10.9825 8.16 -10.6525 8.82 -10.3125 9.5 C-8.6625 9.17 -7.0125 8.84 -5.3125 8.5 C-5.3125 8.17 -5.3125 7.84 -5.3125 7.5 C-7.2925 7.5 -9.2725 7.5 -11.3125 7.5 Z " fill="#AA957B" transform="translate(243.3125,48.5)"/>
<path d="M0 0 C-3.56466206 1.2551627 -5.80619452 0.71463529 -9.375 -0.375 C-17.69470849 -2.88263045 -25.4823461 -3.21234138 -34.125 -3.25 C-35.86523438 -3.2809375 -35.86523438 -3.2809375 -37.640625 -3.3125 C-58.5415093 -3.40601626 -77.2805216 5.68247925 -93 19 C-94.06154297 19.82564453 -94.06154297 19.82564453 -95.14453125 20.66796875 C-95.77746094 21.16941406 -96.41039062 21.67085937 -97.0625 22.1875 C-97.61035156 22.61417969 -98.15820312 23.04085937 -98.72265625 23.48046875 C-100.43358174 25.5157899 -100.48528064 27.41461571 -101 30 C-102.3828125 31.96484375 -102.3828125 31.96484375 -104.125 33.9375 C-116.75381346 49.69763811 -120.43797344 68.12767823 -120.5625 87.875 C-120.57724365 89.16978271 -120.5919873 90.46456543 -120.60717773 91.79858398 C-120.5252587 99.47101264 -119.47804972 105.98959456 -116.93457031 113.23632812 C-116.09365523 115.72304671 -115.57150411 118.03570647 -115.1875 120.625 C-113.04572625 130.72457104 -104.91966112 138.7976529 -98 146 C-97.36707031 146.67289063 -96.73414063 147.34578125 -96.08203125 148.0390625 C-92.64716628 151.60282969 -89.22731429 154.42236933 -85 157 C-85.33 157.66 -85.66 158.32 -86 159 C-90 159 -90 159 -92.421875 156.78125 C-93.69804687 155.40453125 -93.69804687 155.40453125 -95 154 C-96.74700699 152.49651519 -98.49710891 150.99662047 -100.25 149.5 C-116.49012921 134.72039248 -126.1268523 113.42859753 -127.375 91.63671875 C-128.26736011 65.32252576 -120.46640823 42.74347066 -103 23 C-102.11054688 21.96166016 -102.11054688 21.96166016 -101.203125 20.90234375 C-76.40074983 -6.04875204 -33.23930113 -12.69136952 0 0 Z " fill="#7E6852" transform="translate(300,223)"/>
<path d="M0 0 C0.66 0 1.32 0 2 0 C2.33 0.66 2.66 1.32 3 2 C3.721875 2.20625 4.44375 2.4125 5.1875 2.625 C13.63146818 6.75316222 17.26870116 18.02106339 20.1640625 26.34765625 C26.06337639 44.83075841 24.73553871 63.87745684 22.125 82.875 C21.95137939 84.14682129 21.77775879 85.41864258 21.59887695 86.72900391 C20.26804305 95.73195695 20.26804305 95.73195695 18 98 C17.34 98 16.68 98 16 98 C16 96.68 16 95.36 16 94 C16.66 94 17.32 94 18 94 C18 93.34 18 92.68 18 92 C15.525 92.99 15.525 92.99 13 94 C13.20496094 92.83984375 13.40992188 91.6796875 13.62109375 90.484375 C17.28393721 69.40775383 19.38491846 47.79122608 13 27 C13.99 27 14.98 27 16 27 C15.54738642 25.56068883 15.08767021 24.12361001 14.625 22.6875 C14.36976563 21.88699219 14.11453125 21.08648437 13.8515625 20.26171875 C12.67570184 17.13867599 10.77280472 14.67257151 8.875 11.9375 C7 9 7 9 7 7 C6.401875 6.731875 5.80375 6.46375 5.1875 6.1875 C3.00152146 5.00082594 1.58667406 3.90400887 0 2 C0 1.34 0 0.68 0 0 Z " fill="#A6937A" transform="translate(255,54)"/>
<path d="M0 0 C1.44748032 1.23842923 2.88475569 2.48886858 4.3125 3.75 C5.28832031 4.51828125 6.26414062 5.2865625 7.26953125 6.078125 C10.50460273 8.77325166 12.9052747 11.81275772 15.3125 15.25 C15.74038818 15.85730957 16.16827637 16.46461914 16.60913086 17.09033203 C22.16159677 25.18894476 26.92040482 33.75157291 27.3125 43.75 C24.31797472 42.25273736 24.256469 40.1246786 23.1875 37 C15.50848351 16.50016943 0.83499599 1.59569713 -18.875 -7.67578125 C-37.39257888 -15.56415363 -57.60117258 -17.46080792 -76.6875 -10.25 C-84.6571703 -6.95077632 -91.75824989 -3.64511976 -97.6875 2.75 C-98.99925986 3.77813611 -100.3244893 4.79084432 -101.6875 5.75 C-101.6875 1.75 -101.6875 1.75 -99.6875 -0.25 C-99.14480469 -0.8584375 -98.60210937 -1.466875 -98.04296875 -2.09375 C-71.32339279 -26.55346132 -26.5521117 -20.98729787 0 0 Z " fill="#382C1F" transform="translate(315.6875,247.25)"/>
<path d="M0 0 C-3.56466206 1.2551627 -5.80619452 0.71463529 -9.375 -0.375 C-17.69470849 -2.88263045 -25.4823461 -3.21234138 -34.125 -3.25 C-35.86523438 -3.2809375 -35.86523438 -3.2809375 -37.640625 -3.3125 C-58.5415093 -3.40601626 -77.2805216 5.68247925 -93 19 C-94.06154297 19.82564453 -94.06154297 19.82564453 -95.14453125 20.66796875 C-95.77746094 21.16941406 -96.41039062 21.67085937 -97.0625 22.1875 C-97.61035156 22.61417969 -98.15820312 23.04085937 -98.72265625 23.48046875 C-100.43353979 25.51574 -100.48773444 27.41502915 -101 30 C-102.34765625 31.89453125 -102.34765625 31.89453125 -104.0625 33.8125 C-109.27678611 40.17349633 -112.50832347 47.6085289 -116 55 C-117.23828125 53.42578125 -117.23828125 53.42578125 -118 51 C-116.83452784 48.54022456 -115.66393942 46.4468631 -114.1875 44.1875 C-111.81140145 40.5131621 -110.1060808 37.86190652 -109.5625 33.4453125 C-108.84653256 29.06001191 -106.81592969 26.76206729 -103.8125 23.6875 C-103.27713623 23.12844971 -102.74177246 22.56939941 -102.19018555 21.9934082 C-75.7640206 -4.77630071 -35.12265616 -13.41046871 0 0 Z " fill="#866D57" transform="translate(300,223)"/>
<path d="M0 0 C0.33 1.32 0.66 2.64 1 4 C1.66 4 2.32 4 3 4 C2.67515625 4.75216797 2.67515625 4.75216797 2.34375 5.51953125 C-3.84392698 22.33511639 0.18957078 41.93959699 7.3203125 57.7265625 C10.23750051 63.41168705 13.61464459 68.68207513 18.2109375 73.1484375 C20 75 20 75 20 77 C20.58007812 77.26425781 21.16015625 77.52851563 21.7578125 77.80078125 C24.09178768 79.04909202 25.86107604 80.47527282 27.875 82.1875 C38.51201646 90.51664829 50.01396815 94.2847388 63 97 C63 97.33 63 97.66 63 98 C46.76954285 99.2484967 31.8211688 89.0937797 20 79 C18.3352657 77.66425479 16.66881028 76.33064939 15 75 C4.06711693 65.74909894 -2.15659312 47.85391169 -4 34 C-4.91207472 22.06822883 -4.64275116 11.17161998 0 0 Z " fill="#4D3E30" transform="translate(189,283)"/>
<path d="M0 0 C0.99 0.495 0.99 0.495 2 1 C2.01417969 2.06734375 2.02835938 3.1346875 2.04296875 4.234375 C2.79191606 32.52722568 12.86251215 55.56934431 33.0703125 75.37109375 C35.94510856 77.95074408 38.74054647 79.95437857 42 82 C41.67 82.66 41.34 83.32 41 84 C37 84 37 84 34.578125 81.78125 C33.30195313 80.40453125 33.30195313 80.40453125 32 79 C30.25299301 77.49651519 28.50289109 75.99662047 26.75 74.5 C11.51007145 60.63064221 0.93088353 39.7457037 -0.15429688 19.05859375 C-0.31906695 12.70088015 -0.23264801 6.35486976 0 0 Z " fill="#8C7058" transform="translate(173,298)"/>
<path d="M0 0 C16.61878418 14.27912951 30.62220609 33.94414965 32.421875 56.5 C32.4345144 58.52230342 32.32907064 60.54511837 32.1875 62.5625 C31.5275 62.2325 30.8675 61.9025 30.1875 61.5625 C29.64176456 58.92977628 29.20131235 56.34382088 28.8125 53.6875 C25.31115924 32.26072003 14.36851039 13.97747229 -2.8125 0.5625 C-22.31774185 -13.02238506 -46.36806265 -20.1477631 -70.18310547 -16.02734375 C-73.49759309 -15.28641538 -76.68087908 -14.35874362 -79.9140625 -13.3125 C-82.8125 -12.4375 -82.8125 -12.4375 -86.8125 -12.4375 C-86.8125 -13.0975 -86.8125 -13.7575 -86.8125 -14.4375 C-57.23823433 -24.25196869 -24.71986936 -19.78270537 0 0 Z " fill="#624C38" transform="translate(322.8125,245.4375)"/>
<path d="M0 0 C0.33 0 0.66 0 1 0 C1.04254356 1.99954746 1.04080783 4.00041636 1 6 C0.67 6.33 0.34 6.66 0 7 C-0.88446745 13.29715908 -1.15522367 19.46049157 -1.125 25.8125 C-1.12886719 26.64458984 -1.13273438 27.47667969 -1.13671875 28.33398438 C-1.13542969 29.13771484 -1.13414062 29.94144531 -1.1328125 30.76953125 C-1.13168457 31.48729736 -1.13055664 32.20506348 -1.12939453 32.94458008 C-0.99560449 35.06982222 -0.57937369 36.95493171 0 39 C0.99 38.505 0.99 38.505 2 38 C2.36923077 45.38461538 2.36923077 45.38461538 0.5 48.5 C0.005 48.995 -0.49 49.49 -1 50 C-0.34 50.66 0.32 51.32 1 52 C1.64933144 54.2054385 2.19812448 56.44114698 2.6875 58.6875 C2.95949219 59.88761719 3.23148438 61.08773437 3.51171875 62.32421875 C4.02469819 66.18592797 3.86321472 69.20853204 3 73 C2.01 73.495 2.01 73.495 1 74 C0.36779535 71.29318202 -0.25574569 68.5847866 -0.875 65.875 C-1.13603516 64.76318359 -1.13603516 64.76318359 -1.40234375 63.62890625 C-4.20711203 51.26714974 -5.30851208 39.23055432 -5.1875 26.5625 C-5.18685547 25.25345703 -5.18621094 23.94441406 -5.18554688 22.59570312 C-5.10625409 5.26582453 -5.10625409 5.26582453 0 0 Z " fill="#9B866B" transform="translate(211,81)"/>
<path d="M0 0 C-0.9590625 0.4640625 -0.9590625 0.4640625 -1.9375 0.9375 C-3.93610821 1.8345163 -3.93610821 1.8345163 -5 3 C-7.55711229 3.39400415 -10.10062833 3.73009092 -12.66918945 4.03149414 C-13.87409027 4.17801674 -13.87409027 4.17801674 -15.10333252 4.32749939 C-17.77282083 4.65097641 -20.44301507 4.96816952 -23.11328125 5.28515625 C-24.96318732 5.50761954 -26.81305567 5.73039675 -28.66288757 5.95347595 C-32.5473202 6.42098137 -36.43209012 6.88554187 -40.31713867 7.34790039 C-45.29789116 7.94076975 -50.27791483 8.53951333 -55.25771809 9.14029789 C-59.08102662 9.60113415 -62.9046245 10.05953 -66.72832298 10.51711845 C-68.56441533 10.73701233 -70.40043599 10.95750566 -72.23638344 11.17860603 C-74.80485459 11.48741233 -77.37367765 11.79310085 -79.94262695 12.09790039 C-81.08286568 12.2358049 -81.08286568 12.2358049 -82.24613953 12.37649536 C-85.5353584 12.76373275 -88.68113871 13 -92 13 C-91.67 11.68 -91.34 10.36 -91 9 C-81.59294946 7.5349145 -72.21108731 6.50503495 -62.72595215 5.73822021 C-50.92785795 4.77995375 -39.20141714 3.61217494 -27.47314453 1.99121094 C-18.33058835 0.73704627 -9.23880405 -0.06863896 0 0 Z " fill="#9E866C" transform="translate(258,467)"/>
<path d="M0 0 C0.8897991 3.30496809 1.54753044 6.60647831 2 10 C-0.73835721 12.73835721 -8.79245884 11.49754156 -12.5 11.625 C-13.77488281 11.6765625 -15.04976563 11.728125 -16.36328125 11.78125 C-17.57371094 11.82507813 -18.78414063 11.86890625 -20.03125 11.9140625 C-21.15080078 11.9548291 -22.27035156 11.9955957 -23.42382812 12.03759766 C-26 12 -26 12 -27 11 C-27.04092937 8.66702567 -27.04241723 6.33294775 -27 4 C-22.7370509 1.9259113 -19.2098584 1.76069156 -14.5 1.8125 C-12.56640625 1.82216797 -12.56640625 1.82216797 -10.59375 1.83203125 C-7.59170489 1.97234423 -4.91240268 2.2999032 -2 3 C-1.34 2.01 -0.68 1.02 0 0 Z " fill="#9A7B5E" transform="translate(299,152)"/>
<path d="M0 0 C4.62 0 9.24 0 14 0 C14 1.65 14 3.3 14 5 C11.36 5 8.72 5 6 5 C6 5.99 6 6.98 6 8 C8.31 8 10.62 8 13 8 C13 9.65 13 11.3 13 13 C10.69 13 8.38 13 6 13 C6 13.99 6 14.98 6 16 C8.64 16 11.28 16 14 16 C13.67 17.65 13.34 19.3 13 21 C8.71 21 4.42 21 0 21 C0 14.07 0 7.14 0 0 Z " fill="#050303" transform="translate(200,296)"/>
<path d="M0 0 C1.051875 0.52400391 1.051875 0.52400391 2.125 1.05859375 C7.05532134 3.42327233 11.34689218 5.41664044 16.83203125 5.72949219 C19.23550091 6.02938457 21.26823214 6.72894639 23.5625 7.50390625 C31.12795472 9.61128225 38.6696079 9.41382357 46.4609375 9.33618164 C48.99511556 9.31254556 51.52823907 9.31564555 54.0625 9.32226562 C62.56307652 9.30633173 70.69288711 9.03827615 79 7 C72.23718321 13.76281679 56.28053068 14.27696103 47.21459961 14.44946289 C39.03860206 14.4150184 30.91923061 14.21904886 23 12 C22.25363281 11.79375 21.50726563 11.5875 20.73828125 11.375 C13.53946072 9.16384395 6.27070046 6.18046697 0 2 C0 1.34 0 0.68 0 0 Z " fill="#67523F" transform="translate(219,383)"/>
<path d="M0 0 C0.33 0 0.66 0 1 0 C1 1.65 1 3.3 1 5 C1.66 5 2.32 5 3 5 C3.00410889 5.64324219 3.00821777 6.28648437 3.01245117 6.94921875 C3.25737592 28.9258268 6.27899158 47.41201201 22.3125 63.625 C23.53472192 64.75754107 24.76370708 65.88283595 26 67 C27.33918377 68.32745711 28.6740046 69.65936889 30 71 C28.515 71.495 28.515 71.495 27 72 C12.38598814 61.47791146 3.23584403 44.46286077 0 27 C-0.27650391 25.89591797 -0.27650391 25.89591797 -0.55859375 24.76953125 C-1.21672433 20.6401987 -1.14397372 16.54921742 -1.125 12.375 C-1.12886719 11.51648438 -1.13273438 10.65796875 -1.13671875 9.7734375 C-1.13542969 8.9484375 -1.13414062 8.1234375 -1.1328125 7.2734375 C-1.13168457 6.52497559 -1.13055664 5.77651367 -1.12939453 5.00537109 C-1 3 -1 3 0 0 Z " fill="#735D47" transform="translate(189,294)"/>
<path d="M0 0 C-3.14662196 2.09774798 -4.57431847 2.39504891 -8.23974609 2.83789062 C-9.31292084 2.97142944 -10.38609558 3.10496826 -11.49179077 3.24255371 C-12.65723419 3.37907349 -13.82267761 3.51559326 -15.0234375 3.65625 C-16.84012436 3.87794861 -16.84012436 3.87794861 -18.69351196 4.10412598 C-21.27048158 4.41708695 -23.84792354 4.72617878 -26.42578125 5.03173828 C-30.29790895 5.49085926 -34.16855126 5.96106016 -38.0390625 6.43359375 C-52.34201873 8.16628052 -66.64848563 9.72957041 -81 11 C-79 8 -79 8 -76.89624023 7.3840332 C-76.04231689 7.27406006 -75.18839355 7.16408691 -74.30859375 7.05078125 C-73.36306641 6.92509766 -72.41753906 6.79941406 -71.44335938 6.66992188 C-70.45142578 6.55197266 -69.45949219 6.43402344 -68.4375 6.3125 C-66.99020508 6.11817383 -66.99020508 6.11817383 -65.51367188 5.91992188 C-59.62858406 5.16888771 -53.93079623 4.87146881 -48 5 C-48 4.01 -48 3.02 -48 2 C-46.02 2.66 -44.04 3.32 -42 4 C-41.67 3.34 -41.34 2.68 -41 2 C-40.43909668 2.01812744 -39.87819336 2.03625488 -39.30029297 2.05493164 C-30.58769733 2.20792223 -22.09130938 1.05961232 -13.4609375 -0.02148438 C-11.72070312 -0.2293457 -11.72070312 -0.2293457 -9.9453125 -0.44140625 C-8.37547607 -0.63778687 -8.37547607 -0.63778687 -6.77392578 -0.83813477 C-4.20719468 -0.98790969 -2.4222663 -0.79567998 0 0 Z " fill="#9E866B" transform="translate(339,458)"/>
<path d="M0 0 C0.721875 0.12375 1.44375 0.2475 2.1875 0.375 C-2.59458205 11.55023987 -17.07162889 21.13845068 -27.9375 25.8125 C-34.13139774 28.01882305 -41.35731545 30.46167594 -47.8125 28.375 C-46.74 27.983125 -45.6675 27.59125 -44.5625 27.1875 C-42.97755805 26.58756599 -41.39441673 25.98286615 -39.8125 25.375 C-38.8946875 25.02308594 -37.976875 24.67117188 -37.03125 24.30859375 C-24.94579894 19.49031524 -13.1461249 13.48379385 -5.125 2.9375 C-2.8125 0.375 -2.8125 0.375 0 0 Z " fill="#977C63" transform="translate(330.8125,363.625)"/>
<path d="M0 0 C0.886875 0.804375 1.77375 1.60875 2.6875 2.4375 C16.09717222 13.85056106 31.3481191 23.50398784 49.4375 23.125 C50.26443359 23.11597656 51.09136719 23.10695313 51.94335938 23.09765625 C53.96236708 23.07431512 55.98122356 23.03845288 58 23 C58 23.66 58 24.32 58 25 C54.7 25 51.4 25 48 25 C48 25.99 48 26.98 48 28 C55.59 28 63.18 28 71 28 C71 28.33 71 28.66 71 29 C45.10891994 29.83633753 25.17347193 25.91071664 5.609375 7.78515625 C1.62262572 3.93083395 1.62262572 3.93083395 0 2 C0 1.34 0 0.68 0 0 Z " fill="#937C66" transform="translate(204,357)"/>
<path d="M0 0 C1.69530451 5.08591354 0.21658918 10.27186449 -0.52368164 15.5065918 C-0.81173401 17.55704742 -1.08329089 19.60923739 -1.35351562 21.66210938 C-1.53205078 22.95052734 -1.71058594 24.23894531 -1.89453125 25.56640625 C-2.05800049 26.75177979 -2.22146973 27.93715332 -2.38989258 29.15844727 C-3 32 -3 32 -5 34 C-5.66 34 -6.32 34 -7 34 C-7 32.68 -7 31.36 -7 30 C-6.34 30 -5.68 30 -5 30 C-5 29.34 -5 28.68 -5 28 C-6.65 28.66 -8.3 29.32 -10 30 C-9.50283656 25.55632281 -8.94478519 21.12240286 -8.375 16.6875 C-8.23449219 15.42486328 -8.09398437 14.16222656 -7.94921875 12.86132812 C-7.78808594 11.65283203 -7.62695312 10.44433594 -7.4609375 9.19921875 C-7.32478027 8.08377686 -7.18862305 6.96833496 -7.04833984 5.8190918 C-6 3 -6 3 -2.90869141 1.11254883 C-1.94882324 0.74540771 -0.98895508 0.3782666 0 0 Z " fill="#A18D71" transform="translate(278,118)"/>
<path d="M0 0 C0.53496094 0.23332031 1.06992188 0.46664062 1.62109375 0.70703125 C-1.4282089 3.12046037 -4.59437769 4.96983491 -8.00390625 6.83203125 C-26.63126403 17.61867639 -38.16070649 34.4887606 -44.37890625 54.70703125 C-46.98828577 64.7680717 -46.96803532 75.37038367 -47.37890625 85.70703125 C-47.70890625 85.70703125 -48.03890625 85.70703125 -48.37890625 85.70703125 C-49.23741723 59.12951248 -44.28275045 37.92878385 -26.37890625 17.70703125 C-8.45710873 -1.04151585 -8.45710873 -1.04151585 0 0 Z " fill="#7D6C5B" transform="translate(230.37890625,232.29296875)"/>
<path d="M0 0 C0.33 0.99 0.66 1.98 1 3 C-1.58232914 3.98188561 -4.16578683 4.96059589 -6.75 5.9375 C-7.47960937 6.21529297 -8.20921875 6.49308594 -8.9609375 6.77929688 C-9.66992188 7.04677734 -10.37890625 7.31425781 -11.109375 7.58984375 C-11.75874023 7.83597412 -12.40810547 8.08210449 -13.07714844 8.33569336 C-17.50279954 9.86466703 -21.2945826 10.0904888 -26 10 C-26.1875 6.625 -26.1875 6.625 -26 3 C-22.3489861 0.56599074 -20.16620784 0.61080765 -15.8125 0.375 C-14.8069104 0.31807983 -14.8069104 0.31807983 -13.78100586 0.26000977 C-9.18026879 0.01422842 -4.60529018 -0.09398551 0 0 Z " fill="#93775C" transform="translate(329,151)"/>
<path d="M0 0 C1.65 0 3.3 0 5 0 C3.58332235 3.49695693 2.10879673 4.8114472 -1.125 6.6875 C-10.97978477 13.00913846 -17.41760351 22.30495649 -20.3125 33.625 C-20.539375 34.73875 -20.76625 35.8525 -21 37 C-21.66 37 -22.32 37 -23 37 C-23 37.66 -23 38.32 -23 39 C-23.66 39 -24.32 39 -25 39 C-25.1799928 33.78020872 -24.97094808 29.92737019 -23 25 C-22.34 25 -21.68 25 -21 25 C-20.67 23.02 -20.34 21.04 -20 19 C-19.01 18.67 -18.02 18.34 -17 18 C-16.67 17.01 -16.34 16.02 -16 15 C-15.67 14.01 -15.34 13.02 -15 12 C-14.01 11.67 -13.02 11.34 -12 11 C-10.76752525 9.50805688 -9.53692371 8.01430593 -8.33203125 6.5 C-6.49056099 4.42632088 -4.47921167 3.20610297 -2 2 C-1.34 2 -0.68 2 0 2 C0 1.34 0 0.68 0 0 Z " fill="#938065" transform="translate(204,57)"/>
<path d="M0 0 C1.258125 -0.04125 2.51625 -0.0825 3.8125 -0.125 C4.52019531 -0.14820313 5.22789062 -0.17140625 5.95703125 -0.1953125 C8 0 8 0 11 2 C11.29296875 5.2578125 11.29296875 5.2578125 11.1875 9.125 C11.16042969 10.40632813 11.13335937 11.68765625 11.10546875 13.0078125 C11.07066406 13.99523437 11.03585937 14.98265625 11 16 C9.35 16 7.7 16 6 16 C6 13.69 6 11.38 6 9 C4.68 9 3.36 9 2 9 C2 9.99 2 10.98 2 12 C2.99 12 3.98 12 5 12 C5 12.99 5 13.98 5 15 C2.125 15.125 2.125 15.125 -1 15 C-3 13 -3 13 -3.1875 9.9375 C-3 7 -3 7 -2 6 C0.67058851 5.85884839 3.32432238 5.95752893 6 6 C6 5.34 6 4.68 6 4 C3.36 4 0.72 4 -2 4 C-1.34 2.68 -0.68 1.36 0 0 Z " fill="#17110F" transform="translate(305,301)"/>
<path d="M0 0 C0.495 0.99 0.495 0.99 1 2 C-2.05361083 9.89259896 -6.55360588 16.59727972 -12 23 C-12.57105469 23.73863281 -13.14210938 24.47726562 -13.73046875 25.23828125 C-20.76643869 33.92447869 -30.59886921 40.04908503 -41 44 C-43.4375 43.6875 -43.4375 43.6875 -45 43 C-42.34296959 39.82870564 -39.14981958 38.52807249 -35.4375 36.8125 C-18.82042999 28.78359461 -8.86185476 15.71250843 0 0 Z " fill="#3A2D20" transform="translate(335,340)"/>
<path d="M0 0 C7.43147208 -0.36548223 7.43147208 -0.36548223 9.75 1.125 C11.56032474 3.8404871 11.29152862 5.96261285 11.1875 9.1875 C11.16042969 10.27417969 11.13335937 11.36085938 11.10546875 12.48046875 C11.07066406 13.31191406 11.03585937 14.14335937 11 15 C9.35 15 7.7 15 6 15 C6 13.02 6 11.04 6 9 C4.68 9 3.36 9 2 9 C2 9.99 2 10.98 2 12 C2.99 12 3.98 12 5 12 C5 12.99 5 13.98 5 15 C-0.41139241 15.36075949 -0.41139241 15.36075949 -2.9375 13.8125 C-4 12 -4 12 -3.75 9.375 C-3 7 -3 7 -2 6 C0.67058851 5.85884839 3.32432238 5.95752893 6 6 C6 5.01 6 4.02 6 3 C3.36 3.33 0.72 3.66 -2 4 C-1.34 2.68 -0.68 1.36 0 0 Z " fill="#120C0B" transform="translate(288,301)"/>
<path d="M0 0 C7.41641337 -0.36474164 7.41641337 -0.36474164 9.75 1.09375 C11.62026304 3.94590113 11.28745794 6.3222495 11.1875 9.6875 C11.16042969 10.86699219 11.13335937 12.04648437 11.10546875 13.26171875 C11.07066406 14.16535156 11.03585937 15.06898438 11 16 C9.35 16 7.7 16 6 16 C6 13.36 6 10.72 6 8 C4.68 8 3.36 8 2 8 C2 9.32 2 10.64 2 12 C2.99 12 3.98 12 5 12 C5 12.99 5 13.98 5 15 C2.125 15.125 2.125 15.125 -1 15 C-3 13 -3 13 -3.1875 9.9375 C-3 7 -3 7 -2 6 C0.67058851 5.85884839 3.32432238 5.95752893 6 6 C6 5.01 6 4.02 6 3 C3.36 3.33 0.72 3.66 -2 4 C-1.34 2.68 -0.68 1.36 0 0 Z " fill="#0E0B09" transform="translate(256,301)"/>
<path d="M0 0 C2 1 2 1 3.04296875 4.10546875 C3.42716197 5.46539077 3.8084714 6.8261295 4.1875 8.1875 C8.69558815 23.32518548 16.10639446 38.32979585 29 48 C31.875 50.625 31.875 50.625 34 53 C34 53.99 34 54.98 34 56 C20.98171322 47.84161338 8.32389984 34.37283973 4.125 19.3125 C3.73982763 17.54385138 3.36493968 15.77293393 3 14 C2.44808815 11.99705228 1.8856789 9.99696575 1.3125 8 C0.49709411 5.12308075 0 3.00514248 0 0 Z " fill="#382B1F" transform="translate(179,323)"/>
<path d="M0 0 C0.66 0.66 1.32 1.32 2 2 C1.85980742 6.78304097 -0.77495531 9.47117352 -3.9375 12.75 C-4.68012085 13.53443481 -4.68012085 13.53443481 -5.43774414 14.3347168 C-16.74505397 26.14329151 -30.56066992 38.51019912 -47.87890625 39.09765625 C-48.57886719 39.06542969 -49.27882813 39.03320312 -50 39 C-47.2348308 37.15655386 -44.72188481 36.13044108 -41.60546875 35.04711914 C-33.6929085 32.2863476 -26.77775704 29.02220685 -20 24 C-19.29617188 23.47921875 -18.59234375 22.9584375 -17.8671875 22.421875 C-10.4189639 16.40487868 -4.77646873 8.22697769 0 0 Z " fill="#A0866E" transform="translate(332,349)"/>
<path d="M0 0 C0.66 0.33 1.32 0.66 2 1 C-1.71372868 8.27781994 -5.76312497 14.73197037 -11 21 C-11.78117187 21.99966797 -11.78117187 21.99966797 -12.578125 23.01953125 C-21.29209756 33.74279359 -32.55043641 39.71063624 -45 45 C-45.33 44.34 -45.66 43.68 -46 43 C-46.66 42.67 -47.32 42.34 -48 42 C-47.40574219 41.78085937 -46.81148438 41.56171875 -46.19921875 41.3359375 C-33.76499617 36.57883213 -24.36708614 30.36708614 -15 21 C-14.24460937 20.24460937 -13.48921875 19.48921875 -12.7109375 18.7109375 C-7.40955267 13.08205399 -3.67058463 6.77911099 0 0 Z " fill="#3A2C1F" transform="translate(339,344)"/>
<path d="M0 0 C3.96 0 7.92 0 12 0 C11.59791618 5.62917348 9.71069698 8.00386479 6 12 C8.31 12 10.62 12 13 12 C12.67 13.32 12.34 14.64 12 16 C8.04 16 4.08 16 0 16 C0 9.80480491 1.01457844 9.28432818 5 5 C3.35 4.67 1.7 4.34 0 4 C0 2.68 0 1.36 0 0 Z " fill="#3C3129" transform="translate(270,301)"/>
<path d="M0 0 C0.66 0.33 1.32 0.66 2 1 C1.125 7.875 1.125 7.875 0 9 C-2.29373241 23.88638885 -2.29373241 23.88638885 1 38 C0.95875 39.134375 0.9175 40.26875 0.875 41.4375 C0.70003266 46.60875701 2.45631956 51.11120429 4.125 55.94921875 C4.9489634 58.82205543 5.17593979 61.03651424 5 64 C2.25415251 61.25415251 1.5935734 58.06617537 0.5 54.4375 C0.28730469 53.75880859 0.07460937 53.08011719 -0.14453125 52.38085938 C-2.82789095 43.6475936 -4.38792738 35.5421252 -4.375 26.375 C-4.37628906 25.42093262 -4.37757813 24.46686523 -4.37890625 23.48388672 C-4.25574784 15.15529907 -2.74087914 7.85555539 0 0 Z " fill="#5D4937" transform="translate(179,280)"/>
<path d="M0 0 C3.05787432 3.68291152 5.02738189 7.79426975 7.125 12.0625 C7.48464844 12.78244141 7.84429687 13.50238281 8.21484375 14.24414062 C9.65769378 17.15415839 10.97053027 19.91159082 12 23 C12.598125 23.144375 13.19625 23.28875 13.8125 23.4375 C16.77479483 24.19923296 18.04920816 25.70085247 20 28 C20 28.66 20 29.32 20 30 C20.58007812 30.26425781 21.16015625 30.52851563 21.7578125 30.80078125 C24.09178768 32.04909202 25.86107604 33.47527282 27.875 35.1875 C38.51201646 43.51664829 50.01396815 47.2847388 63 50 C63 50.33 63 50.66 63 51 C46.76954285 52.2484967 31.8211688 42.0937797 20 32 C18.3352657 30.66425479 16.66881028 29.33064939 15 28 C7.76037083 21.87415993 3.14004368 11.86600569 0 3 C0 2.01 0 1.02 0 0 Z " fill="#57422E" transform="translate(189,330)"/>
<path d="M0 0 C-3.56466206 1.2551627 -5.80619452 0.71463529 -9.375 -0.375 C-17.69470849 -2.88263045 -25.4823461 -3.21234138 -34.125 -3.25 C-35.86523438 -3.2809375 -35.86523438 -3.2809375 -37.640625 -3.3125 C-47.9030614 -3.35841694 -57.07601937 -1.56696404 -66.5 2.5625 C-67.4590625 2.97628906 -68.418125 3.39007813 -69.40625 3.81640625 C-71.01466719 4.55036771 -72.60779665 5.32029572 -74.171875 6.14453125 C-76.52484057 7.24559847 -78.43543772 7.14247568 -81 7 C-59.39950767 -10.13142495 -24.60174054 -9.39339184 0 0 Z " fill="#7E664E" transform="translate(300,223)"/>
<path d="M0 0 C2.66416535 0.19068668 3.79779439 0.80955579 5.74609375 2.64453125 C14.07460215 13.31964017 18.49194746 25.47144473 18 39 C16.515 39.495 16.515 39.495 15 40 C15 36.7 15 33.4 15 30 C14.34 30 13.68 30 13 30 C12.814375 28.2365625 12.814375 28.2365625 12.625 26.4375 C12.13564065 22.45879574 11.1944795 18.82233441 10 15 C9.34 15 8.68 15 8 15 C7.9175 13.88625 7.835 12.7725 7.75 11.625 C7.42126213 7.94246056 7.42126213 7.94246056 4.9375 6.5625 C4.298125 6.376875 3.65875 6.19125 3 6 C3 5.01 3 4.02 3 3 C1.35 2.67 -0.3 2.34 -2 2 C-1.34 1.34 -0.68 0.68 0 0 Z " fill="#A89378" transform="translate(286,62)"/>
<path d="M0 0 C0.46664062 0.43957031 0.93328125 0.87914062 1.4140625 1.33203125 C-2.67867652 2.48563991 -4.87897001 2.1474992 -8.7734375 0.51953125 C-17.5428473 -3.12233759 -26.16836881 -3.99710798 -35.5859375 -3.91796875 C-36.50632812 -3.92570313 -37.42671875 -3.9334375 -38.375 -3.94140625 C-43.93715198 -3.92573822 -48.9932856 -3.34488572 -54.39453125 -1.99902344 C-56.77326538 -1.63966922 -58.31632028 -1.92995541 -60.5859375 -2.66796875 C-42.85444333 -8.8546583 -16.52450356 -10.65855441 0 0 Z " fill="#998471" transform="translate(300.5859375,234.66796875)"/>
<path d="M0 0 C3.375 -0.125 3.375 -0.125 7 0 C9 2 9 2 9.125 4.4375 C9.08375 5.283125 9.0425 6.12875 9 7 C9 9.00097632 9.06268253 11.00292042 9.1875 13 C9 16 9 16 7.875 17.875 C5.21965017 19.4682099 3.03210482 19.20214032 0 19 C0 18.01 0 17.02 0 16 C0.99 15.67 1.98 15.34 3 15 C3.73323796 12.98491642 3.73323796 12.98491642 4 11 C2.68 11 1.36 11 0 11 C0 9.68 0 8.36 0 7 C0.99 7 1.98 7 3 7 C3 5.68 3 4.36 3 3 C2.01 3 1.02 3 0 3 C0 2.01 0 1.02 0 0 Z " fill="#17120E" transform="translate(241,297)"/>
<path d="M0 0 C2.375 0.25 2.375 0.25 5 1 C6.1875 3 6.1875 3 7 5 C7.66 5.33 8.32 5.66 9 6 C9.40729228 8.32156597 9.74438677 10.6568787 10 13 C10.66 13 11.32 13 12 13 C14.68219822 18.36439644 15.3152595 22.01006953 15 28 C15.66 28 16.32 28 17 28 C17 29.98 17 31.96 17 34 C15.68 33.67 14.36 33.34 13 33 C12.85304688 32.11699219 12.70609375 31.23398438 12.5546875 30.32421875 C10.94195755 21.69518664 8.80251284 12.76829066 2.35546875 6.3671875 C0.458776 4.45409683 0.35278372 2.61059953 0 0 Z " fill="#927E63" transform="translate(284,64)"/>
<path d="M0 0 C-0.33 1.65 -0.66 3.3 -1 5 C-1.94875 4.938125 -2.8975 4.87625 -3.875 4.8125 C-5.421875 4.9053125 -5.421875 4.9053125 -7 5 C-7.99 6.485 -7.99 6.485 -9 8 C-12.05482461 9.16216154 -15.00972162 9.10513524 -18.25 9.0625 C-19.14203125 9.05347656 -20.0340625 9.04445312 -20.953125 9.03515625 C-21.62859375 9.02355469 -22.3040625 9.01195312 -23 9 C-21.87548273 6.0280615 -20.77706209 3.66559313 -19 1 C-15.91796875 0.48828125 -15.91796875 0.48828125 -12.1875 0.3125 C-10.96417969 0.24675781 -9.74085938 0.18101562 -8.48046875 0.11328125 C-5.64939873 0.02113643 -2.83201398 -0.02697156 0 0 Z " fill="#A2856A" transform="translate(184,159)"/>
<path d="M0 0 C4.62 0 9.24 0 14 0 C14 1.65 14 3.3 14 5 C11.36 5 8.72 5 6 5 C6 5.99 6 6.98 6 8 C8.31 8 10.62 8 13 8 C13 9.65 13 11.3 13 13 C10.69 13 8.38 13 6 13 C6 13.99 6 14.98 6 16 C8.64 16 11.28 16 14 16 C13.67 17.65 13.34 19.3 13 21 C8.71 21 4.42 21 0 21 C0 14.07 0 7.14 0 0 Z M1 1 C1 7.27 1 13.54 1 20 C4.96 20 8.92 20 13 20 C13 19.01 13 18.02 13 17 C10.36 17 7.72 17 5 17 C5 12.71 5 8.42 5 4 C7.64 4 10.28 4 13 4 C13 3.01 13 2.02 13 1 C9.04 1 5.08 1 1 1 Z " fill="#4E4038" transform="translate(200,296)"/>
<path d="M0 0 C3.3 0.33 6.6 0.66 10 1 C10 1.66 10 2.32 10 3 C11.9528366 4.74360411 13.32010724 5.90170225 15.9453125 6.28125 C18.96836483 7.33874359 19.61302358 9.17873674 21.125 11.9375 C23.21664732 15.72656874 23.21664732 15.72656874 26 19 C26.56520003 21.65537372 26.73788198 24.29144713 27 27 C25.12280273 26.71606445 25.12280273 26.71606445 23 26 C21.52187327 23.39931978 20.26557913 20.9105088 19.0625 18.1875 C15.69503323 10.59551581 12.32614176 6.91654804 4.6875 3.25 C3.80449219 2.82203125 2.92148438 2.3940625 2.01171875 1.953125 C1.34785156 1.63859375 0.68398437 1.3240625 0 1 C0 0.67 0 0.34 0 0 Z " fill="#9C896E" transform="translate(244,54)"/>
<path d="M0 0 C1.051875 0.52400391 1.051875 0.52400391 2.125 1.05859375 C7.11897404 3.45380141 11.42227013 5.38268363 16.9609375 5.7578125 C19.33013245 6.03921113 21.36162853 6.74554284 23.625 7.5 C32.73498529 10.1565391 42.57791899 9.77432888 52 10 C52 10.33 52 10.66 52 11 C33.50405412 12.55517377 16.04884753 12.69923169 0 2 C0 1.34 0 0.68 0 0 Z " fill="#4F3F31" transform="translate(219,383)"/>
<path d="M0 0 C2.97 0 5.94 0 9 0 C9 1.65 9 3.3 9 5 C8.01 5.33 7.02 5.66 6 6 C5.67 9.3 5.34 12.6 5 16 C3.35 16 1.7 16 0 16 C0 10.72 0 5.44 0 0 Z " fill="#211814" transform="translate(320,301)"/>
<path d="M0 0 C0.33 0 0.66 0 1 0 C0.85704109 1.39613065 0.71048442 2.79189308 0.5625 4.1875 C0.48128906 4.96480469 0.40007812 5.74210937 0.31640625 6.54296875 C0 9 0 9 -0.5 11.1875 C-1.24421721 15.37372182 -1.36950602 19.56979619 -1.5625 23.8125 C-1.60568359 24.69615234 -1.64886719 25.57980469 -1.69335938 26.49023438 C-1.79891536 28.65999623 -1.89991071 30.8299791 -2 33 C-2.33 33 -2.66 33 -3 33 C-3.495 35.475 -3.495 35.475 -4 38 C-4.33 38 -4.66 38 -5 38 C-5.72881564 8.59322345 -5.72881564 8.59322345 0 0 Z " fill="#2C2117" transform="translate(184,280)"/>
<path d="M0 0 C-0.78761719 0.38929688 -1.57523438 0.77859375 -2.38671875 1.1796875 C-13.83171563 7.05794625 -29.39110391 15.40235069 -34 28 C-35.57756672 30.40919134 -37.27800775 32.68890513 -39 35 C-39.66 34.01 -40.32 33.02 -41 32 C-32.28645021 19.09196206 -22.6389124 9.42349019 -9 2 C-7.41638672 1.11828125 -7.41638672 1.11828125 -5.80078125 0.21875 C-3 -1 -3 -1 0 0 Z " fill="#423020" transform="translate(235,234)"/>
<path d="M0 0 C1.65 0 3.3 0 5 0 C5 6.27 5 12.54 5 19 C3.35 19 1.7 19 0 19 C0 12.73 0 6.46 0 0 Z " fill="#0C0807" transform="translate(235,297)"/>
<path d="M0 0 C0.99 0.33 1.98 0.66 3 1 C3.125 6.75 3.125 6.75 2 9 C-0.75705369 9.93116296 -3.43439763 10.17171988 -6.328125 10.31640625 C-7.12734375 10.35830078 -7.9265625 10.40019531 -8.75 10.44335938 C-9.575 10.48267578 -10.4 10.52199219 -11.25 10.5625 C-12.51070313 10.62727539 -12.51070313 10.62727539 -13.796875 10.69335938 C-15.86440671 10.79908543 -17.93218281 10.90001295 -20 11 C-19 9 -19 9 -17.25 8.26977539 C-16.13625 7.93707642 -16.13625 7.93707642 -15 7.59765625 C-14.195625 7.34693359 -13.39125 7.09621094 -12.5625 6.83789062 C-10.85524577 6.32129007 -9.14690627 5.80826246 -7.4375 5.29882812 C-6.633125 5.04681641 -5.82875 4.79480469 -5 4.53515625 C-4.2575 4.312229 -3.515 4.08930176 -2.75 3.85961914 C-2.1725 3.57594482 -1.595 3.29227051 -1 3 C-0.67 2.01 -0.34 1.02 0 0 Z " fill="#A68B69" transform="translate(329,151)"/>
<path d="M0 0 C0.66 0 1.32 0 2 0 C3.44962183 2.89924366 3.22126481 5.52300355 3.31640625 8.7578125 C3.33718735 9.42086395 3.35796844 10.08391541 3.37937927 10.76705933 C3.44479231 12.88626694 3.50372105 15.005599 3.5625 17.125 C3.60569309 18.56121081 3.64930764 19.99740902 3.69335938 21.43359375 C3.80046499 24.95559594 3.90175575 28.47773825 4 32 C3.01 32 2.02 32 1 32 C1 30.68 1 29.36 1 28 C0.34 27.67 -0.32 27.34 -1 27 C-0.01 26.67 0.98 26.34 2 26 C1.67402832 25.27981689 1.34805664 24.55963379 1.01220703 23.81762695 C-0.0192973 20.94628314 -0.2324755 18.94675317 -0.1953125 15.91796875 C-0.18886719 14.98662109 -0.18242187 14.05527344 -0.17578125 13.09570312 C-0.15902344 12.13599609 -0.14226562 11.17628906 -0.125 10.1875 C-0.11597656 9.20845703 -0.10695313 8.22941406 -0.09765625 7.22070312 C-0.07417182 4.81354939 -0.0413284 2.40690257 0 0 Z " fill="#A48769" transform="translate(373,383)"/>
<path d="M0 0 C3.34718913 2.23145942 3.42838973 2.49511502 4.16796875 6.18359375 C4.3390918 7.02438477 4.51021484 7.86517578 4.68652344 8.73144531 C4.8518457 9.62444336 5.01716797 10.51744141 5.1875 11.4375 C5.3618457 12.33952148 5.53619141 13.24154297 5.71582031 14.17089844 C6.87562225 20.4828538 7.5303795 26.57651494 7 33 C6.34 32.67 5.68 32.34 5 32 C4.40220572 29.48926404 3.91902989 27.04124111 3.5 24.5 C3.24174122 23.04021292 2.98263115 21.58057618 2.72265625 20.12109375 C2.59906738 19.4132373 2.47547852 18.70538086 2.34814453 17.97607422 C1.69507388 14.26923424 0.95816895 10.64104199 0 7 C-0.66 6.67 -1.32 6.34 -2 6 C-1.34 4.02 -0.68 2.04 0 0 Z " fill="#AB957C" transform="translate(211,126)"/>
<path d="M0 0 C0.38218767 1.65614657 0.71395102 3.32457024 1 5 C0.67 5.33 0.34 5.66 0 6 C-1.64925924 5.93414936 -3.29574522 5.7953925 -4.9375 5.625 C-5.92234375 5.52574219 -6.9071875 5.42648438 -7.921875 5.32421875 C-8.93765625 5.21722656 -9.9534375 5.11023438 -11 5 C-12.89577657 4.81192693 -14.79160555 4.62438102 -16.6875 4.4375 C-18.12505197 4.29217982 -19.56257278 4.14654898 -21 4 C-21 3.34 -21 2.68 -21 2 C-13.90961228 0.49025965 -7.24997422 -0.28307925 0 0 Z " fill="#93785E" transform="translate(159,160)"/>
<path d="M0 0 C7.24243817 2.80505811 10.68984013 12.07713923 13.875 18.6875 C15.85026342 23.19498636 16.72258178 27.09894482 17 32 C14.00547472 30.50273736 13.943969 28.3746786 12.875 25.25 C9.58184501 16.36044173 4.80113503 8.51265002 -1 1 C-0.67 0.67 -0.34 0.34 0 0 Z " fill="#413225" transform="translate(326,259)"/>
<path d="M0 0 C-2.66825113 3.18654451 -5.90208417 4.51426147 -9.625 6.25 C-15.04241063 8.84368002 -19.70195152 11.73885409 -24.328125 15.6171875 C-26 17 -26 17 -28 18 C-28.66 17.34 -29.32 16.68 -30 16 C-23.72532437 10.02411845 -16.57054056 6.09417784 -9 2 C-8.25621094 1.59523437 -7.51242188 1.19046875 -6.74609375 0.7734375 C-4.43981302 -0.24813652 -2.49080617 -0.13837812 0 0 Z " fill="#392B1F" transform="translate(238,227)"/>
<path d="M0 0 C0.67804688 0.0721875 1.35609375 0.144375 2.0546875 0.21875 C8.39612473 0.85113709 14.62886647 1.12438222 21 1 C20.67 1.66 20.34 2.32 20 3 C19.34 3 18.68 3 18 3 C18 3.66 18 4.32 18 5 C12.39 5.66 6.78 6.32 1 7 C1 5 1 5 2 4 C1.34 3.67 0.68 3.34 0 3 C0 2.01 0 1.02 0 0 Z " fill="#B29D82" transform="translate(236,48)"/>
<path d="M0 0 C0.66 0.99 1.32 1.98 2 3 C4.43693311 3.36416047 4.43693311 3.36416047 7.125 3.1875 C8.49011719 3.14689453 8.49011719 3.14689453 9.8828125 3.10546875 C10.58148438 3.07066406 11.28015625 3.03585937 12 3 C12 3.99 12 4.98 12 6 C9.36 6.33 6.72 6.66 4 7 C3.40267181 9.76264289 3 12.16032769 3 15 C2.34 15 1.68 15 1 15 C1 14.01 1 13.02 1 12 C-1.31 12 -3.62 12 -6 12 C-4.97379138 9.7897045 -3.94283206 7.92682503 -2.4375 6 C-0.96806014 3.95556194 -0.43835352 2.45477972 0 0 Z " fill="#A48B73" transform="translate(282,301)"/>
<path d="M0 0 C-4.04923325 4.69549492 -8.92248879 6.1638219 -14.58984375 8.33984375 C-18.22063711 10.10741211 -20.29933011 12.03492887 -23 15 C-24.64864545 16.35555293 -26.31003995 17.69631653 -28 19 C-28 15 -28 15 -26 13 C-25.20916016 12.09507812 -25.20916016 12.09507812 -24.40234375 11.171875 C-21.11133424 8.19658835 -17.47579069 6.30188769 -13.5625 4.25 C-12.81162109 3.83878906 -12.06074219 3.42757812 -11.28710938 3.00390625 C-4.47182066 -0.60454037 -4.47182066 -0.60454037 0 0 Z " fill="#392C1E" transform="translate(242,234)"/>
<path d="M0 0 C4.55293318 1.81689822 7.46694776 5.3591482 10.7578125 8.8359375 C13.95158808 12.13736844 17.12838289 14.59023242 21 17 C20.67 17.66 20.34 18.32 20 19 C16 19 16 19 13.61328125 16.81640625 C12.75089844 15.88699219 11.88851562 14.95757812 11 14 C8.09015923 11.45143501 5.16709075 8.92000251 2.23046875 6.40234375 C0 4 0 4 0 0 Z " fill="#92775C" transform="translate(194,363)"/>
<path d="M0 0 C0.73871338 -0.00926514 1.47742676 -0.01853027 2.23852539 -0.02807617 C6.00828251 -0.00582156 7.72584036 0.10889357 10.9375 2.25 C10.31931396 2.2593457 9.70112793 2.26869141 9.06420898 2.27832031 C-2.43999595 2.49612614 -13.18738789 2.90582502 -24.19921875 6.41015625 C-27.0625 7.25 -27.0625 7.25 -31.0625 7.25 C-31.0625 6.59 -31.0625 5.93 -31.0625 5.25 C-20.76924335 1.83409624 -10.83764967 0.0860222 0 0 Z " fill="#523F2F" transform="translate(267.0625,225.75)"/>
<path d="M0 0 C2.97 0.495 2.97 0.495 6 1 C6.33 10.24 6.66 19.48 7 29 C6.01 29.33 5.02 29.66 4 30 C3.67 21.09 3.34 12.18 3 3 C2.01 3.495 2.01 3.495 1 4 C0.67 2.68 0.34 1.36 0 0 Z " fill="#AE967C" transform="translate(360,157)"/>
<path d="M0 0 C0.33 0 0.66 0 1 0 C1 1.65 1 3.3 1 5 C1.66 5 2.32 5 3 5 C3.02888514 8.14581423 3.04675923 11.29159469 3.0625 14.4375 C3.07087891 15.33533203 3.07925781 16.23316406 3.08789062 17.15820312 C3.09111328 18.01220703 3.09433594 18.86621094 3.09765625 19.74609375 C3.10289307 20.53685303 3.10812988 21.3276123 3.11352539 22.14233398 C3 24 3 24 2 25 C1.95919217 26.99958364 1.95745644 29.00045254 2 31 C-1.32901897 25.00776586 -1.1553665 19.05563071 -1.125 12.375 C-1.12886719 11.51648438 -1.13273438 10.65796875 -1.13671875 9.7734375 C-1.13542969 8.9484375 -1.13414062 8.1234375 -1.1328125 7.2734375 C-1.13168457 6.52497559 -1.13055664 5.77651367 -1.12939453 5.00537109 C-1 3 -1 3 0 0 Z " fill="#8D755F" transform="translate(189,294)"/>
<path d="M0 0 C1.2065625 0.0309375 1.2065625 0.0309375 2.4375 0.0625 C2.4375 0.7225 2.4375 1.3825 2.4375 2.0625 C3.0975 2.0625 3.7575 2.0625 4.4375 2.0625 C4.4375 2.7225 4.4375 3.3825 4.4375 4.0625 C3.7775 4.5575 3.1175 5.0525 2.4375 5.5625 C-0.30098567 8.98560709 0.19826576 11.47357019 0.4921875 15.72265625 C0.4375 18.0625 0.4375 18.0625 -1.5625 21.0625 C-3.95683771 6.84611982 -3.95683771 6.84611982 -3.5625 1.0625 C-2.5625 0.0625 -2.5625 0.0625 0 0 Z " fill="#A68467" transform="translate(149.5625,167.9375)"/>
<path d="M0 0 C0.89203125 0.00902344 1.7840625 0.01804687 2.703125 0.02734375 C3.37859375 0.03894531 4.0540625 0.05054688 4.75 0.0625 C4.75 0.7225 4.75 1.3825 4.75 2.0625 C1.45 2.0625 -1.85 2.0625 -5.25 2.0625 C-5.25 3.0525 -5.25 4.0425 -5.25 5.0625 C2.34 5.0625 9.93 5.0625 17.75 5.0625 C17.75 5.3925 17.75 5.7225 17.75 6.0625 C13.9375662 6.12122928 10.12525094 6.15633916 6.3125 6.1875 C5.24322266 6.20425781 4.17394531 6.22101563 3.07226562 6.23828125 C-3.37397159 6.27770778 -9.01763898 5.72708433 -15.25 4.0625 C-15.25 3.7325 -15.25 3.4025 -15.25 3.0625 C-13.27 3.0625 -11.29 3.0625 -9.25 3.0625 C-9.25 2.4025 -9.25 1.7425 -9.25 1.0625 C-6.09493858 0.12630187 -3.28413498 -0.0432123 0 0 Z " fill="#8F755C" transform="translate(257.25,379.9375)"/>
<path d="M0 0 C0.66 0 1.32 0 2 0 C-0.16658277 4.625947 -2.95154007 8.91023852 -5.63476562 13.24804688 C-8.15516672 17.38720808 -10.19057643 21.50262244 -12 26 C-13.25390625 24.4921875 -13.25390625 24.4921875 -14 22 C-13.02166749 19.16483232 -11.48121026 16.68610225 -9.9375 14.125 C-9.54111328 13.43019531 -9.14472656 12.73539062 -8.73632812 12.01953125 C-6.18552286 7.64319006 -3.45258123 3.71458149 0 0 Z " fill="#9E856E" transform="translate(196,252)"/>
<path d="M0 0 C1.65 0 3.3 0 5 0 C3.5717754 3.54017374 1.99210425 4.92312091 -1.25 6.875 C-5.43468766 9.52507684 -8.63547562 12.37666606 -12 16 C-12.66 15.67 -13.32 15.34 -14 15 C-13.34 14.34 -12.68 13.68 -12 13 C-11.690625 12.195625 -11.38125 11.39125 -11.0625 10.5625 C-9.21053735 6.09600185 -6.19349423 4.25803535 -2 2 C-1.34 2 -0.68 2 0 2 C0 1.34 0 0.68 0 0 Z " fill="#97856A" transform="translate(204,57)"/>
<path d="M0 0 C1.32 0 2.64 0 4 0 C5.90420731 6.80074041 7.40850553 12.91923749 7 20 C6.01 20.33 5.02 20.66 4 21 C4 17.7 4 14.4 4 11 C3.34 11 2.68 11 2 11 C1.77213542 9.01432292 1.54427083 7.02864583 1.31640625 5.04296875 C1.02829265 2.80603607 1.02829265 2.80603607 0 0 Z " fill="#A18C70" transform="translate(297,81)"/>
<path d="M0 0 C3.03964608 0.27633146 6.03728748 0.75932187 9 1.5 C4.64374349 5.4774516 -1.25211604 7.33176221 -7.0625 7.6875 C-8.0215625 7.5946875 -8.0215625 7.5946875 -9 7.5 C-5.02040816 0 -5.02040816 0 0 0 Z " fill="#8B7153" transform="translate(318,152.5)"/>
<path d="M0 0 C0.33 0.99 0.66 1.98 1 3 C1.99 3 2.98 3 4 3 C4 4.32 4 5.64 4 7 C3.01 7 2.02 7 1 7 C1 8.32 1 9.64 1 11 C2.32 11 3.64 11 5 11 C4.67 12.65 4.34 14.3 4 16 C3.01 16 2.02 16 1 16 C1 16.99 1 17.98 1 19 C2.65 19 4.3 19 6 19 C6 19.33 6 19.66 6 20 C2.37 20 -1.26 20 -5 20 C-5 19.67 -5 19.34 -5 19 C-3.35 19 -1.7 19 0 19 C0 12.73 0 6.46 0 0 Z " fill="#877363" transform="translate(240,297)"/>
<path d="M0 0 C0.33 0.99 0.66 1.98 1 3 C0.41992188 3.03738281 -0.16015625 3.07476562 -0.7578125 3.11328125 C-5.86010412 3.54268203 -9.46632088 4.46957444 -14 7 C-16.375 7.6875 -16.375 7.6875 -18 8 C-18 7.34 -18 6.68 -18 6 C-18.66 5.67 -19.32 5.34 -20 5 C-6.3667426 -0.74031891 -6.3667426 -0.74031891 0 0 Z " fill="#B09D85" transform="translate(224,49)"/>
<path d="M0 0 C1.65 0.33 3.3 0.66 5 1 C5.36 6.4 5.36 6.4 3.875 8.875 C1.21965017 10.4682099 -0.96789518 10.20214032 -4 10 C-4 9.01 -4 8.02 -4 7 C-3.01 6.67 -2.02 6.34 -1 6 C-0.67 4.02 -0.34 2.04 0 0 Z " fill="#0E0A09" transform="translate(245,306)"/>
<path d="M0 0 C1.98 0 3.96 0 6 0 C6 2.31 6 4.62 6 7 C2.04 7 -1.92 7 -6 7 C-5.34 5.68 -4.68 4.36 -4 3 C-2.35 3 -0.7 3 1 3 C1.33 2.34 1.66 1.68 2 1 C1.34 0.67 0.68 0.34 0 0 Z " fill="#9D7F61" transform="translate(181,160)"/>
<path d="M0 0 C0.33 0.99 0.66 1.98 1 3 C-2.47512718 4.15837573 -4.13670286 3.77265943 -7.6875 3.0625 C-9.17830078 2.77052734 -9.17830078 2.77052734 -10.69921875 2.47265625 C-11.45847656 2.31667969 -12.21773438 2.16070312 -13 2 C-13.33 2.66 -13.66 3.32 -14 4 C-14 3.34 -14 2.68 -14 2 C-17.465 3.485 -17.465 3.485 -21 5 C-21.99 4.01 -22.98 3.02 -24 2 C-22.05889834 0.05889834 -18.52279488 0.59796658 -15.9375 0.4375 C-14.91837524 0.37381226 -14.91837524 0.37381226 -13.87866211 0.30883789 C-9.24105083 0.03336367 -4.6433894 -0.09476305 0 0 Z " fill="#967E65" transform="translate(329,151)"/>
<path d="M0 0 C0.66 0.66 1.32 1.32 2 2 C0.58297487 1.85769192 -0.8336096 1.71099254 -2.25 1.5625 C-3.43335938 1.44068359 -3.43335938 1.44068359 -4.640625 1.31640625 C-7 1 -7 1 -11 0 C-8.525 3.465 -8.525 3.465 -6 7 C-8.20449433 5.97648478 -10.03843541 4.9690037 -11.9375 3.4375 C-14.29598047 1.79371058 -16.17748429 1.39201607 -19 1 C-19 0.34 -19 -0.32 -19 -1 C-12.37709306 -2.24960508 -6.50589716 -1.87290979 0 0 Z " fill="#967F63" transform="translate(266,54)"/>
<path d="M0 0 C0.33 0.99 0.66 1.98 1 3 C0.01 4.485 0.01 4.485 -1 6 C1.31 6 3.62 6 6 6 C6 6.99 6 7.98 6 9 C2.04 9 -1.92 9 -6 9 C-4.86634892 4.46539569 -3.35806626 3.09975347 0 0 Z " fill="#100C0A" transform="translate(277,307)"/>
<path d="M0 0 C-1.08539063 0.39832031 -2.17078125 0.79664063 -3.2890625 1.20703125 C-4.73444107 1.74200903 -6.17974988 2.27717531 -7.625 2.8125 C-8.33785156 3.07353516 -9.05070312 3.33457031 -9.78515625 3.60351562 C-13.08143527 4.82827985 -16.19772533 6.09978662 -19.34375 7.6875 C-22.17010704 9.08405289 -23.89386584 9.27407066 -27 9 C-20.23714374 3.58023435 -8.78379187 -2.66409512 0 0 Z " fill="#715A44" transform="translate(246,221)"/>
<path d="M0 0 C1.2065625 0.0309375 1.2065625 0.0309375 2.4375 0.0625 C2.1075 2.0425 1.7775 4.0225 1.4375 6.0625 C2.4275 6.0625 3.4175 6.0625 4.4375 6.0625 C4.4375 7.0525 4.4375 8.0425 4.4375 9.0625 C1.5625 9.1875 1.5625 9.1875 -1.5625 9.0625 C-3.5625 7.0625 -3.5625 7.0625 -3.75 4 C-3.50012994 0.08536902 -3.50012994 0.08536902 0 0 Z " fill="#0D0808" transform="translate(305.5625,306.9375)"/>
<path d="M0 0 C6.19240462 0.68804496 12.01955594 2.28048715 18 4 C18 4.66 18 5.32 18 6 C11.45336558 6.54555287 6.47621253 5.8277608 1 2 C0.67 1.34 0.34 0.68 0 0 Z " fill="#997F66" transform="translate(230,377)"/>
<path d="M0 0 C0.66 0.33 1.32 0.66 2 1 C1.125 7.875 1.125 7.875 0 9 C-0.28549649 12.03623255 -0.44868814 15.07257785 -0.62109375 18.1171875 C-1 21 -1 21 -3 24 C-4.83267401 15.29479847 -2.54752969 8.29860531 0 0 Z " fill="#66513E" transform="translate(179,280)"/>
<path d="M0 0 C0.99 0 1.98 0 3 0 C3 0.66 3 1.32 3 2 C3.66 2 4.32 2 5 2 C4.34 5.96 3.68 9.92 3 14 C2.01 14 1.02 14 0 14 C0 9.38 0 4.76 0 0 Z " fill="#030101" transform="translate(321,302)"/>
<path d="M0 0 C3.47534238 4.17688665 5.54859927 9.02076725 7.86328125 13.89257812 C10.17236197 18.64101843 12.82937847 22.77434588 16 27 C15.01 27 14.02 27 13 27 C7.12209002 20.0645581 0 9.393292 0 0 Z " fill="#6F5F4F" transform="translate(189,330)"/>
<path d="M0 0 C3.3 0 6.6 0 10 0 C10 0.99 10 1.98 10 3 C7.36 3.33 4.72 3.66 2 4 C1.896875 4.763125 1.79375 5.52625 1.6875 6.3125 C0.95635961 9.17059424 0.23048087 10.15742885 -2 12 C-2.99 11.67 -3.98 11.34 -5 11 C-4.34 11 -3.68 11 -3 11 C-2.67 8.36 -2.34 5.72 -2 3 C-1.34 3 -0.68 3 0 3 C0 2.01 0 1.02 0 0 Z " fill="#79685A" transform="translate(252,304)"/>
<path d="M0 0 C0.71285156 0.39832031 1.42570313 0.79664063 2.16015625 1.20703125 C7.35606755 4.08121637 12.48553046 6.79421218 18 9 C18 9.66 18 10.32 18 11 C13.85835585 10.37224617 10.55230761 8.99258094 6.8125 7.125 C5.76707031 6.61195313 4.72164062 6.09890625 3.64453125 5.5703125 C1 4 1 4 -1 1 C-0.67 0.67 -0.34 0.34 0 0 Z " fill="#342A20" transform="translate(215,378)"/>
<path d="M0 0 C0.99 0.33 1.98 0.66 3 1 C-4.49319654 5.57917567 -12.04359345 9.30172292 -21 9 C-18.6125867 7.40839113 -16.89993396 6.48559154 -14.27734375 5.52734375 C-13.57416016 5.26759766 -12.87097656 5.00785156 -12.14648438 4.74023438 C-11.41751953 4.47533203 -10.68855469 4.21042969 -9.9375 3.9375 C-4.89106966 2.15309189 -4.89106966 2.15309189 0 0 Z " fill="#84705D" transform="translate(303,379)"/>
<path d="M0 0 C0.33 0.66 0.66 1.32 1 2 C-1.77082686 8.86456729 -5.48393204 15.15567675 -10 21 C-10.66 20.67 -11.32 20.34 -12 20 C-10.43004467 16.68044272 -8.55176396 13.64692863 -6.5625 10.5625 C-4.31595998 7.07381258 -2.11778375 3.56849801 0 0 Z " fill="#513F2D" transform="translate(335,340)"/>
<path d="M0 0 C3.63 0 7.26 0 11 0 C11 1.32 11 2.64 11 4 C7.37 4 3.74 4 0 4 C0 2.68 0 1.36 0 0 Z " fill="#29201B" transform="translate(216,307)"/>
<path d="M0 0 C0.66 0.66 1.32 1.32 2 2 C1.43152344 2.53367188 0.86304688 3.06734375 0.27734375 3.6171875 C-5.27640388 8.97622946 -9.79959132 14.53056026 -14 21 C-14.33 20.34 -14.66 19.68 -15 19 C-10.4558753 12.19801333 -5.57091212 5.99053926 0 0 Z " fill="#82705F" transform="translate(208,246)"/>
<path d="M0 0 C3.27915717 0.7539668 6.10973376 2.03988545 9.140625 3.4921875 C9.140625 4.4821875 9.140625 5.4721875 9.140625 6.4921875 C8.19703125 6.20214844 8.19703125 6.20214844 7.234375 5.90625 C1.89846115 4.282975 -3.43696768 2.79758185 -8.859375 1.4921875 C-5.43549614 -0.7903984 -3.96127474 -0.6015269 0 0 Z " fill="#47392C" transform="translate(287.859375,232.5078125)"/>
<path d="M0 0 C-2.94786676 1.96524451 -5.90972937 3.57472183 -9.0625 5.1875 C-10.12597656 5.73792969 -11.18945312 6.28835937 -12.28515625 6.85546875 C-13.18105469 7.23316406 -14.07695312 7.61085938 -15 8 C-15.66 7.67 -16.32 7.34 -17 7 C-12.13452683 0.15229702 -7.94297697 -0.26925346 0 0 Z " fill="#A28F77" transform="translate(224,52)"/>
<path d="M0 0 C1 3 1 3 -0.58203125 6.3203125 C-1.31498156 7.59466168 -2.05895635 8.86271875 -2.8125 10.125 C-3.18181641 10.77082031 -3.55113281 11.41664063 -3.93164062 12.08203125 C-6.72182642 16.86091321 -6.72182642 16.86091321 -9 18 C-8.67 16.68 -8.34 15.36 -8 14 C-8.66 14 -9.32 14 -10 14 C-9.25 11.5625 -9.25 11.5625 -8 9 C-7.360625 8.8659375 -6.72125 8.731875 -6.0625 8.59375 C-3.84345689 8.19185381 -3.84345689 8.19185381 -2.734375 6.15234375 C-2.24710937 5.05599609 -2.24710937 5.05599609 -1.75 3.9375 C-1.41484375 3.20402344 -1.0796875 2.47054688 -0.734375 1.71484375 C-0.49203125 1.14894531 -0.2496875 0.58304687 0 0 Z " fill="#977A5E" transform="translate(345,342)"/>
<path d="M0 0 C0.33 0 0.66 0 1 0 C1.33 1.98 1.66 3.96 2 6 C2.33 6 2.66 6 3 6 C3 9.96 3 13.92 3 18 C2.67 18 2.34 18 2 18 C1.67 19.65 1.34 21.3 1 23 C0.67 23 0.34 23 0 23 C0 15.41 0 7.82 0 0 Z " fill="#392C21" transform="translate(179,295)"/>
<path d="M0 0 C2.330374 2.330374 2.38990587 3.18710781 2.75 6.375 C2.84796875 7.14585937 2.9459375 7.91671875 3.046875 8.7109375 C2.99352601 11.31614668 2.31748852 12.78053857 1 15 C-1.12989834 11.45016943 -1.70662657 8.10722806 -2 4 C-1.0625 1.5625 -1.0625 1.5625 0 0 Z " fill="#A28A74" transform="translate(212,140)"/>
<path d="M0 0 C-1.65191491 1.35156675 -3.32294092 2.679762 -5 4 C-5.5775 4.46664062 -6.155 4.93328125 -6.75 5.4140625 C-7.348125 5.87554687 -7.94625 6.33703125 -8.5625 6.8125 C-9.39974609 7.47185547 -9.39974609 7.47185547 -10.25390625 8.14453125 C-12 9 -12 9 -14.21484375 8.63671875 C-14.80394531 8.42660156 -15.39304688 8.21648437 -16 8 C-14.28211261 6.65216541 -12.5501903 5.32220557 -10.8125 4 C-9.84957031 3.2575 -8.88664063 2.515 -7.89453125 1.75 C-4.86861311 -0.07943499 -3.45248521 -0.40394708 0 0 Z " fill="#7C644F" transform="translate(222,230)"/>
<path d="M0 0 C0.33 1.32 0.66 2.64 1 4 C1.66 4 2.32 4 3 4 C2.79503906 4.64066406 2.59007812 5.28132813 2.37890625 5.94140625 C0.81172636 10.97287851 -0.43042174 15.75988003 -1 21 C-1.33 21 -1.66 21 -2 21 C-2.05420701 18.43721301 -2.09377007 15.87558517 -2.125 13.3125 C-2.15013672 12.2306543 -2.15013672 12.2306543 -2.17578125 11.12695312 C-2.21391569 6.95123219 -1.8789919 3.7505862 0 0 Z " fill="#362A1E" transform="translate(189,283)"/>
<path d="M0 0 C2.52113092 -0.05447822 5.0410585 -0.09389852 7.5625 -0.125 C8.26697266 -0.14175781 8.97144531 -0.15851563 9.69726562 -0.17578125 C14.51891822 -0.22022044 18.42297438 0.47231996 23 2 C23 2.66 23 3.32 23 4 C15.32537035 3.06024943 7.66322553 2.0277503 0 1 C0 0.67 0 0.34 0 0 Z " fill="#998570" transform="translate(261,228)"/>
<path d="M0 0 C-0.33 0.66 -0.66 1.32 -1 2 C-2.32 2 -3.64 2 -5 2 C-5 2.66 -5 3.32 -5 4 C-7.64 3.67 -10.28 3.34 -13 3 C-13.33 2.01 -13.66 1.02 -14 0 C-9.20699867 -1.39151652 -4.84864218 -0.68662689 0 0 Z " fill="#9F8B72" transform="translate(241,51)"/>
<path d="M0 0 C0.66 0.66 1.32 1.32 2 2 C2.99 2 3.98 2 5 2 C4.67 2.33 4.34 2.66 4 3 C3.92674832 5.86267567 3.90761795 8.700719 3.9375 11.5625 C3.94201172 12.36880859 3.94652344 13.17511719 3.95117188 14.00585938 C3.96299482 16.00393756 3.98093086 18.00197783 4 20 C3.34 20.33 2.68 20.66 2 21 C0.90896815 17.72690445 0.97969596 14.66018042 1.03125 11.23828125 C0.97854819 7.46351436 0.48483879 3.74018498 0 0 Z " fill="#A8886A" transform="translate(154,335)"/>
<path d="M0 0 C0.66 0.99 1.32 1.98 2 3 C4.43693311 3.36416047 4.43693311 3.36416047 7.125 3.1875 C8.49011719 3.14689453 8.49011719 3.14689453 9.8828125 3.10546875 C10.58148438 3.07066406 11.28015625 3.03585937 12 3 C12 3.99 12 4.98 12 6 C7.38 6.33 2.76 6.66 -2 7 C-1.34 4.69 -0.68 2.38 0 0 Z " fill="#857161" transform="translate(282,301)"/>
<path d="M0 0 C1.2065625 0.0309375 1.2065625 0.0309375 2.4375 0.0625 C2.4375 3.0325 2.4375 6.0025 2.4375 9.0625 C1.1175 9.0625 -0.2025 9.0625 -1.5625 9.0625 C-1.5625 6.7525 -1.5625 4.4425 -1.5625 2.0625 C-2.2225 1.7325 -2.8825 1.4025 -3.5625 1.0625 C-2.5625 0.0625 -2.5625 0.0625 0 0 Z " fill="#856749" transform="translate(267.5625,154.9375)"/>
<path d="M0 0 C4.13813705 0.53176995 6.27082318 2.77932166 9.25 5.5625 C10.14203125 6.38878906 11.0340625 7.21507812 11.953125 8.06640625 C12.62859375 8.70449219 13.3040625 9.34257812 14 10 C13.01 10.66 12.02 11.32 11 12 C6.43951988 8.38748484 2.98334854 5.01202555 0 0 Z " fill="#8E765F" transform="translate(205,354)"/>
<path d="M0 0 C0.99 0 1.98 0 3 0 C3 1.32 3 2.64 3 4 C2.34 4 1.68 4 1 4 C0.87625 4.9075 0.7525 5.815 0.625 6.75 C0.07890323 9.58970323 -0.57263803 11.52590591 -2 14 C-3.32854177 8.0819503 -2.66464729 5.22270869 0 0 Z " fill="#B09C7F" transform="translate(180,78)"/>
<path d="M0 0 C0.66 0.33 1.32 0.66 2 1 C-1.31960761 7.30839521 -4.69925996 13.30784406 -9 19 C-9.66 18.34 -10.32 17.68 -11 17 C-10.37351562 16.10796875 -9.74703125 15.2159375 -9.1015625 14.296875 C-8.27590274 13.11468035 -7.45038961 11.93238328 -6.625 10.75 C-6.2125 10.16347656 -5.8 9.57695312 -5.375 8.97265625 C-3.35295912 6.07004918 -1.45533455 3.23052285 0 0 Z " fill="#58432F" transform="translate(339,344)"/>
<path d="M0 0 C3.96 0 7.92 0 12 0 C12 0.99 12 1.98 12 3 C8.04 3 4.08 3 0 3 C0 2.01 0 1.02 0 0 Z " fill="#120B0A" transform="translate(270,301)"/>
<path d="M0 0 C0.99 0 1.98 0 3 0 C1.52307692 6.64615385 1.52307692 6.64615385 -1.125 8.4375 C-1.74375 8.623125 -2.3625 8.80875 -3 9 C-3.66 8.34 -4.32 7.68 -5 7 C-4.24172908 5.82512964 -3.46792245 4.66027408 -2.6875 3.5 C-2.25824219 2.8503125 -1.82898438 2.200625 -1.38671875 1.53125 C-0.70029297 0.77328125 -0.70029297 0.77328125 0 0 Z " fill="#A1856E" transform="translate(334,356)"/>
<path d="M0 0 C0.99 0.33 1.98 0.66 3 1 C3.33 5.62 3.66 10.24 4 15 C3.01 15.495 3.01 15.495 2 16 C-0.27141454 10.60539047 -0.20413361 5.73842251 0 0 Z " fill="#B2937C" transform="translate(365,210)"/>
<path d="M0 0 C0 0.99 0 1.98 0 3 C-6.4 6.07692308 -6.4 6.07692308 -9.4375 5.6875 C-9.953125 5.460625 -10.46875 5.23375 -11 5 C-7.92351092 1.43774949 -4.70156256 0 0 0 Z " fill="#322619" transform="translate(301,378)"/>
<path d="M0 0 C0.33 0 0.66 0 1 0 C1.05391993 1.79133978 1.09275571 3.58313899 1.125 5.375 C1.14820313 6.37273437 1.17140625 7.37046875 1.1953125 8.3984375 C1 11 1 11 -1 13 C-3 11 -3 11 -3.25 8.625 C-2.99049704 5.90021893 -2.37103356 4.33882195 -1 2 C-0.67 1.34 -0.34 0.68 0 0 Z " fill="#9E8A71" transform="translate(275,93)"/>
<path d="M0 0 C0.66 0.66 1.32 1.32 2 2 C-1.3 4.31 -4.6 6.62 -8 9 C-8.99 8.34 -9.98 7.68 -11 7 C-7.37 4.69 -3.74 2.38 0 0 Z " fill="#937B66" transform="translate(315,371)"/>
<path d="M0 0 C1.32 0 2.64 0 4 0 C4.33 2.31 4.66 4.62 5 7 C3.0625 7.5625 3.0625 7.5625 1 8 C0 7 0 7 -0.0625 3.4375 C-0.041875 2.303125 -0.02125 1.16875 0 0 Z " fill="#8C6C50" transform="translate(272,156)"/>
<path d="M0 0 C-1.66751148 3.94139078 -4.22710649 6.7892812 -7 10 C-7.99 9.34 -8.98 8.68 -10 8 C-8.71451591 6.66070495 -7.42141845 5.32871357 -6.125 4 C-5.04605469 2.88625 -5.04605469 2.88625 -3.9453125 1.75 C-2 0 -2 0 0 0 Z " fill="#463424" transform="translate(329,362)"/>
<path d="M0 0 C2.90315776 3.87087701 3.69702983 5.35445747 4 10 C2 12 2 12 -1.625 12.125 C-2.73875 12.08375 -3.8525 12.0425 -5 12 C-5 11.67 -5 11.34 -5 11 C-3.35 11 -1.7 11 0 11 C0 7.37 0 3.74 0 0 Z " fill="#8A7363" transform="translate(299,305)"/>
<path d="M0 0 C2.64 0 5.28 0 8 0 C6 3 6 3 4.0546875 3.51171875 C3.33539063 3.56972656 2.61609375 3.62773437 1.875 3.6875 C-0.043125 3.8421875 -0.043125 3.8421875 -2 4 C-1.34 2.68 -0.68 1.36 0 0 Z " fill="#1C120E" transform="translate(256,301)"/>
<path d="M0 0 C0.33 0.66 0.66 1.32 1 2 C1.66 2.33 2.32 2.66 3 3 C2.01 5.64 1.02 8.28 0 11 C-0.99 10.67 -1.98 10.34 -3 10 C-2.01 6.7 -1.02 3.4 0 0 Z " fill="#382C22" transform="translate(186,271)"/>
<path d="M0 0 C0.99 0.495 0.99 0.495 2 1 C3.29930238 5.28769786 3.07516774 9.56510345 3 14 C2.01 14.495 2.01 14.495 1 15 C0.67 10.05 0.34 5.1 0 0 Z " fill="#A4886B" transform="translate(150,237)"/>
<path d="M0 0 C2.5 2.25 2.5 2.25 5 5 C5 6.32 5 7.64 5 9 C0.125 4.25 0.125 4.25 -1 2 C-0.67 1.34 -0.34 0.68 0 0 Z " fill="#423528" transform="translate(193,356)"/>
<path d="M0 0 C4.66154042 1.49835228 5.86610751 4.88463591 8 9 C6.25 8.875 6.25 8.875 4 8 C0 2.77777778 0 2.77777778 0 0 Z " fill="#826A54" transform="translate(199,345)"/>
<path d="M0 0 C-2.52956528 3.0916909 -5.22454612 3.90931332 -9 5 C-9.66 4.34 -10.32 3.68 -11 3 C-7.14243493 0.84694043 -4.44870215 -0.39253254 0 0 Z " fill="#49372B" transform="translate(238,227)"/>
<path d="M0 0 C4.10958767 1.45044271 7.43258745 3.51110752 11 6 C10.67 6.99 10.34 7.98 10 9 C9.278125 8.401875 8.55625 7.80375 7.8125 7.1875 C5.08685797 4.9647189 5.08685797 4.9647189 2.1875 3.375 C1.465625 2.92125 0.74375 2.4675 0 2 C0 1.34 0 0.68 0 0 Z " fill="#9C8B72" transform="translate(274,59)"/>
<path d="M0 0 C1.98 0 3.96 0 6 0 C6 0.66 6 1.32 6 2 C6.66 2 7.32 2 8 2 C8 3.65 8 5.3 8 7 C7.67 5.68 7.34 4.36 7 3 C4.69 3 2.38 3 0 3 C0 2.01 0 1.02 0 0 Z " fill="#A38973" transform="translate(206,301)"/>
<path d="M0 0 C0.33 0.66 0.66 1.32 1 2 C-0.21484375 4.6015625 -0.21484375 4.6015625 -1.9375 7.625 C-2.50339844 8.62789063 -3.06929687 9.63078125 -3.65234375 10.6640625 C-4.09707031 11.43492187 -4.54179687 12.20578125 -5 13 C-5.66 13 -6.32 13 -7 13 C-5.35821735 8.22390502 -2.73453298 4.20617096 0 0 Z " fill="#927B65" transform="translate(204,263)"/>
<path d="M0 0 C0.66 0.33 1.32 0.66 2 1 C0.90653119 2.34212062 -0.2001575 3.67347975 -1.3125 5 C-2.23482422 6.11375 -2.23482422 6.11375 -3.17578125 7.25 C-5 9 -5 9 -8 9 C-5.36 6.03 -2.72 3.06 0 0 Z " fill="#977F69" transform="translate(213,253)"/>
<path d="M0 0 C1.98 0 3.96 0 6 0 C6 2.31 6 4.62 6 7 C5.34 7 4.68 7 4 7 C3.566875 5.5459375 3.566875 5.5459375 3.125 4.0625 C2.35785318 0.89335797 2.35785318 0.89335797 0 0 Z " fill="#7D6042" transform="translate(181,160)"/>
<path d="M0 0 C0 3.39593478 -0.52165948 4.06619881 -2.5 6.6875 C-2.9640625 7.31011719 -3.428125 7.93273437 -3.90625 8.57421875 C-4.2671875 9.04472656 -4.628125 9.51523437 -5 10 C-5.66 9.01 -6.32 8.02 -7 7 C-4.78071806 4.09197539 -3.07030857 2.04687238 0 0 Z " fill="#463B2E" transform="translate(201,259)"/>
<path d="M0 0 C0.66 0.66 1.32 1.32 2 2 C1.7578125 4.6015625 1.7578125 4.6015625 1.125 7.625 C0.81949219 9.12933594 0.81949219 9.12933594 0.5078125 10.6640625 C0.34023437 11.43492187 0.17265625 12.20578125 0 13 C-0.33 13 -0.66 13 -1 13 C-1.2236337 11.58566794 -1.42826476 10.16832382 -1.625 8.75 C-1.74101562 7.96109375 -1.85703125 7.1721875 -1.9765625 6.359375 C-2.00319395 3.67847541 -1.36592084 2.27305911 0 0 Z " fill="#6F5945" transform="translate(177,291)"/>
<path d="M0 0 C0.66 0.33 1.32 0.66 2 1 C1.34 2.32 0.68 3.64 0 5 C-1.65 5 -3.3 5 -5 5 C-3.35 3.35 -1.7 1.7 0 0 Z " fill="#AD9B82" transform="translate(193,62)"/>
<path d="M0 0 C0.66 0.33 1.32 0.66 2 1 C2 1.66 2 2.32 2 3 C-1.37097383 4.49821059 -3.20442119 5 -7 5 C-7 4.34 -7 3.68 -7 3 C-4.69631264 1.93347808 -2.35981813 0.93578995 0 0 Z " fill="#977D6B" transform="translate(301,385)"/>
<path d="M0 0 C2.31 0 4.62 0 7 0 C7 0.99 7 1.98 7 3 C4.69 3 2.38 3 0 3 C0 2.01 0 1.02 0 0 Z " fill="#0E0907" transform="translate(206,305)"/>
<path d="M0 0 C-2.96687001 1.64826111 -5.65626525 2.44271087 -9 3 C-9.33 2.01 -9.66 1.02 -10 0 C-6.42355152 -1.2380014 -3.66305234 -0.74926071 0 0 Z " fill="#4A3B2D" transform="translate(250,233)"/>
<path d="M0 0 C1.76462683 3.08809695 2 4.23312136 2 8 C0.68 7.34 -0.64 6.68 -2 6 C-1.49396008 3.83125748 -1.00016187 2.00032373 0 0 Z " fill="#A79479" transform="translate(184,152)"/>
<path d="M0 0 C2.64 0.33 5.28 0.66 8 1 C8 1.66 8 2.32 8 3 C5.69 3 3.38 3 1 3 C0.67 2.01 0.34 1.02 0 0 Z " fill="#A88C71" transform="translate(240,380)"/>
<path d="M0 0 C1.32 0 2.64 0 4 0 C4 2.31 4 4.62 4 7 C3.67 6.01 3.34 5.02 3 4 C2.01 4 1.02 4 0 4 C0 2.68 0 1.36 0 0 Z " fill="#736355" transform="translate(258,309)"/>
<path d="M0 0 C0.99 0 1.98 0 3 0 C3 2.31 3 4.62 3 7 C2.01 7 1.02 7 0 7 C0 4.69 0 2.38 0 0 Z " fill="#AF997E" transform="translate(176,123)"/>
<path d="M0 0 C0 0.66 0 1.32 0 2 C-0.66 2 -1.32 2 -2 2 C-2 2.66 -2 3.32 -2 4 C-4 5.625 -4 5.625 -6 7 C-6.66 6.67 -7.32 6.34 -8 6 C-3.38461538 0 -3.38461538 0 0 0 Z " fill="#A59375" transform="translate(206,55)"/>
<path d="M0 0 C1.98 0 3.96 0 6 0 C6 0.66 6 1.32 6 2 C4.37373596 3.38232443 2.7074998 4.71937515 1 6 C0.67 4.02 0.34 2.04 0 0 Z " fill="#A07C5F" transform="translate(148,170)"/>
<path d="M0 0 C1.65 0 3.3 0 5 0 C4.67 1.32 4.34 2.64 4 4 C2.68 3.67 1.36 3.34 0 3 C0 2.01 0 1.02 0 0 Z " fill="#A68C73" transform="translate(256,156)"/>
<path d="M0 0 C0 3.52032428 -0.70351351 4.4385343 -3 7 C-3.66 7 -4.32 7 -5 7 C-4.1875 4.0625 -4.1875 4.0625 -3 1 C-2.01 0.67 -1.02 0.34 0 0 Z " fill="#8E7A61" transform="translate(192,68)"/>
<path d="M0 0 C0.99 0.33 1.98 0.66 3 1 C3.625 3.375 3.625 3.375 4 6 C3.34 6.66 2.68 7.32 2 8 C0.23537317 4.91190305 0 3.76687864 0 0 Z " fill="#806A55" transform="translate(192,329)"/>
<path d="M0 0 C0.66 0.33 1.32 0.66 2 1 C0.25 4.875 0.25 4.875 -2 6 C-2.66 5.34 -3.32 4.68 -4 4 C-2.68 2.68 -1.36 1.36 0 0 Z " fill="#403123" transform="translate(212,239)"/>
<path d="M0 0 C1.32 0.99 2.64 1.98 4 3 C3.34 4.32 2.68 5.64 2 7 C1.34 7 0.68 7 0 7 C0 4.69 0 2.38 0 0 Z " fill="#A48667" transform="translate(148,196)"/>
<path d="M0 0 C0.99 0.33 1.98 0.66 3 1 C2.34 2.98 1.68 4.96 1 7 C0.34 6.67 -0.32 6.34 -1 6 C-1.042721 4.33388095 -1.04063832 2.66617115 -1 1 C-0.67 0.67 -0.34 0.34 0 0 Z " fill="#9A846C" transform="translate(272,130)"/>
<path d="M0 0 C1.485 0.99 1.485 0.99 3 2 C3.1875 4.625 3.1875 4.625 3 7 C2.01 7.33 1.02 7.66 0 8 C0 5.36 0 2.72 0 0 Z " fill="#A89274" transform="translate(301,94)"/>
<path d="M0 0 C-2 2 -2 2 -4.625 2.125 C-5.40875 2.08375 -6.1925 2.0425 -7 2 C-7.33 1.34 -7.66 0.68 -8 0 C-5.13822943 -1.43088528 -3.06624227 -0.59991697 0 0 Z " fill="#AD9B84" transform="translate(270,52)"/>
</svg>
